<svg xmlns="http://www.w3.org/2000/svg" xmlns:xlink="http://www.w3.org/1999/xlink" xmlns:lucid="lucid" width="740" height="661.8"><g transform="translate(-60 -60)" lucid:page-tab-id="eTUUI7nkJ2S7"><path d="M0 0h1323.2v1870.4H0z" fill="#fff"/><path d="M80 80h160v141H80z" stroke="#000" stroke-width="2" fill="#c7e8ac"/><use xlink:href="#a" transform="matrix(1,0,0,1,88,88) translate(27.574999999999996 66.10000000000001)"/><path d="M320 280h160v121H320z" stroke="#000" stroke-width="2" fill="#ffeca9"/><use xlink:href="#b" transform="matrix(1,0,0,1,328,288) translate(47.55 56.1)"/><path d="M620 280h160v121H620z" stroke="#000" stroke-width="2" fill="#b2d6ef"/><use xlink:href="#c" transform="matrix(1,0,0,1,628,288) translate(17.14999999999999 56.1)"/><path d="M402 256.26h-4v-72.5h-47.2v-4H402zm-159-72.5v-4h54.8v4z" fill="#fcc438"/><path d="M243.05 183.77H241v-4h2.05zM400 272.53l-4.64-14.27h9.28z" fill="#fcc438"/><path d="M400 279l-7.4-22.74h14.8zm-1.88-18.74l1.88 5.8 1.88-5.8z" fill="#fcc438"/><use xlink:href="#d" transform="matrix(1,0,0,1,297.8122342712464,170.9685950413222) translate(0 14.4)"/><use xlink:href="#e" transform="matrix(1,0,0,1,407.99999999999994,241.5553871304453) translate(0 14.4)"/><use xlink:href="#f" transform="matrix(1,0,0,1,248.11607080765353,156.1685950413222) translate(0 14.4)"/><path d="M702 256.26h-4V114.8H466v-4h236zM243 114.8v-4h118.15v4z" fill="#0c7cba"/><path d="M243.05 114.8H241v-4h2.05zM700 272.53l-4.64-14.27h9.28z" fill="#0c7cba"/><path d="M700 279l-7.4-22.74h14.8zm-1.88-18.74l1.88 5.8 1.88-5.8z" fill="#0c7cba"/><use xlink:href="#e" transform="matrix(1,0,0,1,707.9999999999999,240.78716951658498) translate(0 14.4)"/><use xlink:href="#g" transform="matrix(1,0,0,1,361.15216436637394,101.99999999999996) translate(0 14.4)"/><use xlink:href="#f" transform="matrix(1,0,0,1,248.46002499863005,87.19999999999996) translate(0 14.4)"/><path d="M114.5 688h247.94v4H110.5V244.74h4zm588-284v288H454.3v-4h244.2V404z" fill="#0c7cba"/><path d="M702.5 404.05h-4V402h4zM117.14 242.74h-9.28l4.64-14.27z" fill="#0c7cba"/><path d="M119.9 244.74h-14.8l7.4-22.74zm-9.28-4h3.76l-1.88-5.8z" fill="#0c7cba"/><use xlink:href="#h" transform="matrix(1,0,0,1,362.4374487916717,679.2) translate(0 14.4)"/><use xlink:href="#e" transform="matrix(1,0,0,1,708.4991906493902,419.87064958935434) translate(0 14.4)"/><use xlink:href="#f" transform="matrix(1,0,0,1,120.5,241.8248279889778) translate(0 14.4)"/><path d="M523 374h-40v-4h36v-24.7h4zm0-50.3h-4V299h-15.26v-4H523z" fill="#fcc438"/><path d="M483.05 374H481v-4h2.05zM501.74 301.64L487.47 297l14.27-4.64z" fill="#fcc438"/><path d="M503.74 304.4L481 297l22.74-7.4zm-9.8-7.4l5.8 1.88v-3.76z" fill="#fcc438"/><use xlink:href="#i" transform="matrix(1,0,0,1,495.525,323.7) translate(0 14.4)"/><path d="M320 460h160v164H320z" stroke="#000" stroke-width="2" fill="#ffeca9"/><use xlink:href="#j" transform="matrix(1,0,0,1,328,468) translate(47.55 56)"/><use xlink:href="#k" transform="matrix(1,0,0,1,328,468) translate(26.124999999999993 77.60000000000001)"/><use xlink:href="#l" transform="matrix(1,0,0,1,328,468) translate(41.074999999999996 99.20000000000002)"/><path d="M400 404v32.26" stroke="#fcc438" stroke-width="4" fill="none"/><path d="M402 404.05h-4V402h4z" fill="#fcc438"/><path d="M400 452.53l-4.64-14.27h9.28z" stroke="#fcc438" stroke-width="4" fill="#fcc438"/><use xlink:href="#f" transform="matrix(1,0,0,1,408,423.7) translate(0 14.4)"/><path d="M202 540h115v4H198V417.47h4zm0-144.13h-4V244.74h4z" fill="#fcc438"/><path d="M319 544h-2.05v-4H319zM204.64 242.74h-9.28l4.64-14.27z" fill="#fcc438"/><path d="M207.4 244.74h-14.8L200 222zm-9.28-4h3.76l-1.88-5.8z" fill="#fcc438"/><use xlink:href="#e" transform="matrix(1,0,0,1,208,245.86666666666673) translate(0 14.4)"/><g><use xlink:href="#m" transform="matrix(1,0,0,1,151.55,395.86666666666673) translate(0 14.4)"/><use xlink:href="#n" transform="matrix(1,0,0,1,151.55,395.86666666666673) translate(81.9 14.4)"/></g><defs><path d="M175 0L67-191c6 58 2 128 3 191H24v-248h59L193-55c-6-58-2-129-3-193h46V0h-61" id="o"/><path d="M185-48c-13 30-37 53-82 52C43 2 14-33 14-96s30-98 90-98c62 0 83 45 84 108H66c0 31 8 55 39 56 18 0 30-7 34-22zm-45-69c5-46-57-63-70-21-2 6-4 13-4 21h74" id="p"/><path d="M231 0h-52l-39-155L100 0H48L-1-190h46L77-45c9-52 24-97 36-145h53l37 145 32-145h46" id="q"/><path d="M137-138c1-29-70-34-71-4 15 46 118 7 119 86 1 83-164 76-172 9l43-7c4 19 20 25 44 25 33 8 57-30 24-41C81-84 22-81 20-136c-2-80 154-74 161-7" id="r"/><path d="M76-208v77h127v40H76V0H24v-248h183v40H76" id="s"/><path d="M88-194c31-1 46 15 58 34l-1-101h50l1 261h-48c-2-10 0-23-3-31C134-8 116 4 84 4 32 4 16-41 15-95c0-56 19-97 73-99zm17 164c33 0 40-30 41-66 1-37-9-64-41-64s-38 30-39 65c0 43 13 65 39 65" id="t"/><g id="a"><use transform="matrix(0.05,0,0,0.05,0,0)" xlink:href="#o"/><use transform="matrix(0.05,0,0,0.05,12.950000000000001,0)" xlink:href="#p"/><use transform="matrix(0.05,0,0,0.05,22.950000000000003,0)" xlink:href="#q"/><use transform="matrix(0.05,0,0,0.05,36.95,0)" xlink:href="#r"/><use transform="matrix(0.05,0,0,0.05,46.95,0)" xlink:href="#s"/><use transform="matrix(0.05,0,0,0.05,57.900000000000006,0)" xlink:href="#p"/><use transform="matrix(0.05,0,0,0.05,67.9,0)" xlink:href="#p"/><use transform="matrix(0.05,0,0,0.05,77.9,0)" xlink:href="#t"/></g><path d="M24 0v-248h195v40H76v63h132v40H76v65h150V0H24" id="u"/><path d="M128 0H69L1-190h53L99-40l48-150h52" id="v"/><path d="M135-194c87-1 58 113 63 194h-50c-7-57 23-157-34-157-59 0-34 97-39 157H25l-1-190h47c2 12-1 28 3 38 12-26 28-41 61-42" id="w"/><path d="M115-3C79 11 28 4 28-45v-112H4v-33h27l15-45h31v45h36v33H77v99c-1 23 16 31 38 25v30" id="x"/><g id="b"><use transform="matrix(0.05,0,0,0.05,0,0)" xlink:href="#u"/><use transform="matrix(0.05,0,0,0.05,12,0)" xlink:href="#v"/><use transform="matrix(0.05,0,0,0.05,22,0)" xlink:href="#p"/><use transform="matrix(0.05,0,0,0.05,32,0)" xlink:href="#w"/><use transform="matrix(0.05,0,0,0.05,42.95,0)" xlink:href="#x"/></g><path d="M169-182c-1-43-94-46-97-3 18 66 151 10 154 114 3 95-165 93-204 36-6-8-10-19-12-30l50-8c3 46 112 56 116 5-17-69-150-10-154-114-4-87 153-88 188-35 5 8 8 18 10 28" id="y"/><path d="M85 4C-2 5 27-109 22-190h50c7 57-23 150 33 157 60-5 35-97 40-157h50l1 190h-47c-2-12 1-28-3-38-12 25-28 42-61 42" id="z"/><path d="M135-194c52 0 70 43 70 98 0 56-19 99-73 100-30 1-46-15-58-35L72 0H24l1-261h50v104c11-23 29-37 60-37zM114-30c31 0 40-27 40-66 0-37-7-63-39-63s-41 28-41 65c0 36 8 64 40 64" id="A"/><path d="M190-63c-7 42-38 67-86 67-59 0-84-38-90-98-12-110 154-137 174-36l-49 2c-2-19-15-32-35-32-30 0-35 28-38 64-6 74 65 87 74 30" id="B"/><path d="M135-150c-39-12-60 13-60 57V0H25l-1-190h47c2 13-1 29 3 40 6-28 27-53 61-41v41" id="C"/><path d="M25-224v-37h50v37H25zM25 0v-190h50V0H25" id="D"/><path d="M135-194c53 0 70 44 70 98 0 56-19 98-73 100-31 1-45-17-59-34 3 33 2 69 2 105H25l-1-265h48c2 10 0 23 3 31 11-24 29-35 60-35zM114-30c33 0 39-31 40-66 0-38-9-64-40-64-56 0-55 130 0 130" id="E"/><path d="M110-194c64 0 96 36 96 99 0 64-35 99-97 99-61 0-95-36-95-99 0-62 34-99 96-99zm-1 164c35 0 45-28 45-65 0-40-10-65-43-65-34 0-45 26-45 65 0 36 10 65 43 65" id="F"/><g id="c"><use transform="matrix(0.05,0,0,0.05,0,0)" xlink:href="#y"/><use transform="matrix(0.05,0,0,0.05,12,0)" xlink:href="#z"/><use transform="matrix(0.05,0,0,0.05,22.950000000000003,0)" xlink:href="#A"/><use transform="matrix(0.05,0,0,0.05,33.900000000000006,0)" xlink:href="#r"/><use transform="matrix(0.05,0,0,0.05,43.900000000000006,0)" xlink:href="#B"/><use transform="matrix(0.05,0,0,0.05,53.900000000000006,0)" xlink:href="#C"/><use transform="matrix(0.05,0,0,0.05,60.900000000000006,0)" xlink:href="#D"/><use transform="matrix(0.05,0,0,0.05,65.9,0)" xlink:href="#E"/><use transform="matrix(0.05,0,0,0.05,76.85000000000001,0)" xlink:href="#x"/><use transform="matrix(0.05,0,0,0.05,82.80000000000001,0)" xlink:href="#D"/><use transform="matrix(0.05,0,0,0.05,87.80000000000001,0)" xlink:href="#F"/><use transform="matrix(0.05,0,0,0.05,98.75000000000001,0)" xlink:href="#w"/></g><path d="M100-194c63 0 86 42 84 106H49c0 40 14 67 53 68 26 1 43-12 49-29l28 8c-11 28-37 45-77 45C44 4 14-33 15-96c1-61 26-98 85-98zm52 81c6-60-76-77-97-28-3 7-6 17-6 28h103" id="G"/><path d="M108 0H70L1-190h34L89-25l56-165h34" id="H"/><path d="M117-194c89-4 53 116 60 194h-32v-121c0-31-8-49-39-48C34-167 62-67 57 0H25l-1-190h30c1 10-1 24 2 32 11-22 29-35 61-36" id="I"/><path d="M59-47c-2 24 18 29 38 22v24C64 9 27 4 27-40v-127H5v-23h24l9-43h21v43h35v23H59v120" id="J"/><path d="M135-143c-3-34-86-38-87 0 15 53 115 12 119 90S17 21 10-45l28-5c4 36 97 45 98 0-10-56-113-15-118-90-4-57 82-63 122-42 12 7 21 19 24 35" id="K"/><g id="d"><use transform="matrix(0.05,0,0,0.05,0,0)" xlink:href="#G"/><use transform="matrix(0.05,0,0,0.05,10,0)" xlink:href="#H"/><use transform="matrix(0.05,0,0,0.05,19,0)" xlink:href="#G"/><use transform="matrix(0.05,0,0,0.05,29,0)" xlink:href="#I"/><use transform="matrix(0.05,0,0,0.05,39,0)" xlink:href="#J"/><use transform="matrix(0.05,0,0,0.05,44,0)" xlink:href="#K"/></g><path d="M190 0L58-211 59 0H30v-248h39L202-35l-2-213h31V0h-41" id="L"/><use transform="matrix(0.05,0,0,0.05,0,0)" xlink:href="#L" id="e"/><path d="M27 0v-27h64v-190l-56 39v-29l58-41h29v221h61V0H27" id="M"/><use transform="matrix(0.05,0,0,0.05,0,0)" xlink:href="#M" id="f"/><path d="M84 4C-5 8 30-112 23-190h32v120c0 31 7 50 39 49 72-2 45-101 50-169h31l1 190h-30c-1-10 1-25-2-33-11 22-28 36-60 37" id="N"/><path d="M115-194c53 0 69 39 70 98 0 66-23 100-70 100C84 3 66-7 56-30L54 0H23l1-261h32v101c10-23 28-34 59-34zm-8 174c40 0 45-34 45-75 0-40-5-75-45-74-42 0-51 32-51 76 0 43 10 73 51 73" id="O"/><path d="M96-169c-40 0-48 33-48 73s9 75 48 75c24 0 41-14 43-38l32 2c-6 37-31 61-74 61-59 0-76-41-82-99-10-93 101-131 147-64 4 7 5 14 7 22l-32 3c-4-21-16-35-41-35" id="P"/><path d="M114-163C36-179 61-72 57 0H25l-1-190h30c1 12-1 29 2 39 6-27 23-49 58-41v29" id="Q"/><path d="M24-231v-30h32v30H24zM24 0v-190h32V0H24" id="R"/><path d="M115-194c55 1 70 41 70 98S169 2 115 4C84 4 66-9 55-30l1 105H24l-1-265h31l2 30c10-21 28-34 59-34zm-8 174c40 0 45-34 45-75s-6-73-45-74c-42 0-51 32-51 76 0 43 10 73 51 73" id="S"/><path d="M100-194c62-1 85 37 85 99 1 63-27 99-86 99S16-35 15-95c0-66 28-99 85-99zM99-20c44 1 53-31 53-75 0-43-8-75-51-75s-53 32-53 75 10 74 51 75" id="T"/><g id="g"><use transform="matrix(0.05,0,0,0.05,0,0)" xlink:href="#K"/><use transform="matrix(0.05,0,0,0.05,9,0)" xlink:href="#N"/><use transform="matrix(0.05,0,0,0.05,19,0)" xlink:href="#O"/><use transform="matrix(0.05,0,0,0.05,29,0)" xlink:href="#K"/><use transform="matrix(0.05,0,0,0.05,38,0)" xlink:href="#P"/><use transform="matrix(0.05,0,0,0.05,47,0)" xlink:href="#Q"/><use transform="matrix(0.05,0,0,0.05,52.95,0)" xlink:href="#R"/><use transform="matrix(0.05,0,0,0.05,56.900000000000006,0)" xlink:href="#S"/><use transform="matrix(0.05,0,0,0.05,66.9,0)" xlink:href="#J"/><use transform="matrix(0.05,0,0,0.05,71.9,0)" xlink:href="#R"/><use transform="matrix(0.05,0,0,0.05,75.85000000000001,0)" xlink:href="#T"/><use transform="matrix(0.05,0,0,0.05,85.85000000000001,0)" xlink:href="#I"/><use transform="matrix(0.05,0,0,0.05,95.85000000000001,0)" xlink:href="#K"/></g><g id="h"><use transform="matrix(0.05,0,0,0.05,0,0)" xlink:href="#K"/><use transform="matrix(0.05,0,0,0.05,9,0)" xlink:href="#N"/><use transform="matrix(0.05,0,0,0.05,19,0)" xlink:href="#O"/><use transform="matrix(0.05,0,0,0.05,29,0)" xlink:href="#K"/><use transform="matrix(0.05,0,0,0.05,38,0)" xlink:href="#P"/><use transform="matrix(0.05,0,0,0.05,47,0)" xlink:href="#Q"/><use transform="matrix(0.05,0,0,0.05,52.95,0)" xlink:href="#R"/><use transform="matrix(0.05,0,0,0.05,56.900000000000006,0)" xlink:href="#O"/><use transform="matrix(0.05,0,0,0.05,66.9,0)" xlink:href="#G"/><use transform="matrix(0.05,0,0,0.05,76.9,0)" xlink:href="#Q"/><use transform="matrix(0.05,0,0,0.05,82.85000000000001,0)" xlink:href="#K"/></g><path d="M141-36C126-15 110 5 73 4 37 3 15-17 15-53c-1-64 63-63 125-63 3-35-9-54-41-54-24 1-41 7-42 31l-33-3c5-37 33-52 76-52 45 0 72 20 72 64v82c-1 20 7 32 28 27v20c-31 9-61-2-59-35zM48-53c0 20 12 33 32 33 41-3 63-29 60-74-43 2-92-5-92 41" id="U"/><g id="i"><use transform="matrix(0.05,0,0,0.05,0,0)" xlink:href="#S"/><use transform="matrix(0.05,0,0,0.05,10,0)" xlink:href="#U"/><use transform="matrix(0.05,0,0,0.05,20,0)" xlink:href="#Q"/><use transform="matrix(0.05,0,0,0.05,25.950000000000003,0)" xlink:href="#G"/><use transform="matrix(0.05,0,0,0.05,35.95,0)" xlink:href="#I"/><use transform="matrix(0.05,0,0,0.05,45.95,0)" xlink:href="#J"/></g><g id="j"><use transform="matrix(0.05,0,0,0.05,0,0)" xlink:href="#u"/><use transform="matrix(0.05,0,0,0.05,12,0)" xlink:href="#v"/><use transform="matrix(0.05,0,0,0.05,22,0)" xlink:href="#p"/><use transform="matrix(0.05,0,0,0.05,32,0)" xlink:href="#w"/><use transform="matrix(0.05,0,0,0.05,42.95,0)" xlink:href="#x"/></g><path d="M24-248c93 1 206-16 204 79-1 75-69 88-152 82V0H24v-248zm52 121c47 0 100 7 100-41 0-47-54-39-100-39v80" id="V"/><path d="M25 0v-261h50V0H25" id="W"/><path d="M114-157C55-157 80-60 75 0H25v-261h50l-1 109c12-26 28-41 61-42 86-1 58 113 63 194h-50c-7-57 23-157-34-157" id="X"/><path d="M195-6C206 82 75 100 31 46c-4-6-6-13-8-21l49-6c3 16 16 24 34 25 40 0 42-37 40-79-11 22-30 35-61 35-53 0-70-43-70-97 0-56 18-96 73-97 30 0 46 14 59 34l2-30h47zm-90-29c32 0 41-27 41-63 0-35-9-62-40-62-32 0-39 29-40 63 0 36 9 62 39 62" id="Y"/><g id="k"><use transform="matrix(0.05,0,0,0.05,0,0)" xlink:href="#V"/><use transform="matrix(0.05,0,0,0.05,12,0)" xlink:href="#z"/><use transform="matrix(0.05,0,0,0.05,22.950000000000003,0)" xlink:href="#A"/><use transform="matrix(0.05,0,0,0.05,33.900000000000006,0)" xlink:href="#W"/><use transform="matrix(0.05,0,0,0.05,38.900000000000006,0)" xlink:href="#D"/><use transform="matrix(0.05,0,0,0.05,43.900000000000006,0)" xlink:href="#r"/><use transform="matrix(0.05,0,0,0.05,53.900000000000006,0)" xlink:href="#X"/><use transform="matrix(0.05,0,0,0.05,64.85000000000001,0)" xlink:href="#D"/><use transform="matrix(0.05,0,0,0.05,69.85000000000001,0)" xlink:href="#w"/><use transform="matrix(0.05,0,0,0.05,80.80000000000001,0)" xlink:href="#Y"/></g><path d="M186 0v-106H76V0H24v-248h52v99h110v-99h50V0h-50" id="Z"/><path d="M123 10C108 53 80 86 19 72V37c35 8 53-11 59-39L3-190h52l48 148c12-52 28-100 44-148h51" id="aa"/><g id="l"><use transform="matrix(0.05,0,0,0.05,0,0)" xlink:href="#Z"/><use transform="matrix(0.05,0,0,0.05,12.950000000000001,0)" xlink:href="#D"/><use transform="matrix(0.05,0,0,0.05,17.950000000000003,0)" xlink:href="#r"/><use transform="matrix(0.05,0,0,0.05,27.950000000000003,0)" xlink:href="#x"/><use transform="matrix(0.05,0,0,0.05,33.900000000000006,0)" xlink:href="#F"/><use transform="matrix(0.05,0,0,0.05,44.85000000000001,0)" xlink:href="#C"/><use transform="matrix(0.05,0,0,0.05,51.85,0)" xlink:href="#aa"/></g><path d="M24 0v-261h32V0H24" id="ab"/><path d="M106-169C34-169 62-67 57 0H25v-261h32l-1 103c12-21 28-36 61-36 89 0 53 116 60 194h-32v-121c2-32-8-49-39-48" id="ac"/><path d="M85-194c31 0 48 13 60 33l-1-100h32l1 261h-30c-2-10 0-23-3-31C134-8 116 4 85 4 32 4 16-35 15-94c0-66 23-100 70-100zm9 24c-40 0-46 34-46 75 0 40 6 74 45 74 42 0 51-32 51-76 0-42-9-74-50-73" id="ad"/><g id="m"><use transform="matrix(0.05,0,0,0.05,0,0)" xlink:href="#S"/><use transform="matrix(0.05,0,0,0.05,10,0)" xlink:href="#N"/><use transform="matrix(0.05,0,0,0.05,20,0)" xlink:href="#O"/><use transform="matrix(0.05,0,0,0.05,30,0)" xlink:href="#ab"/><use transform="matrix(0.05,0,0,0.05,33.95,0)" xlink:href="#R"/><use transform="matrix(0.05,0,0,0.05,37.900000000000006,0)" xlink:href="#K"/><use transform="matrix(0.05,0,0,0.05,46.900000000000006,0)" xlink:href="#ac"/><use transform="matrix(0.05,0,0,0.05,56.900000000000006,0)" xlink:href="#G"/><use transform="matrix(0.05,0,0,0.05,66.9,0)" xlink:href="#ad"/></g><g id="n"><use transform="matrix(0.05,0,0,0.05,0,0)" xlink:href="#J"/><use transform="matrix(0.05,0,0,0.05,5,0)" xlink:href="#T"/></g></defs></g></svg>