<svg xmlns="http://www.w3.org/2000/svg" xmlns:xlink="http://www.w3.org/1999/xlink" xmlns:lucid="lucid" width="1700" height="1644"><g transform="translate(4960 -40)" lucid:page-tab-id="sdv~WwTt0XGT"><path d="M-5036.8 0h2582.4v1870.4h-2582.4z" fill="#fff"/><path d="M-4940 1180h1660v200h-1660z" fill="#fff" fill-opacity=".5"/><path d="M-4926 1180h12m8 0h12m8 0h12m8 0h12m8 0h12m8 0h12m8 0h12m8 0h12m8 0h12m8 0h12m8 0h12m8 0h12m8 0h12m8 0h12m8 0h12m8 0h12m8 0h12m8 0h12m8 0h12m8 0h12m8 0h12m8 0h12m8 0h12m8 0h12m8 0h12m8 0h12m8 0h12m8 0h12m8 0h12m8 0h12m8 0h12m8 0h12m8 0h12m8 0h12m8 0h12m8 0h12m8 0h12m8 0h12m8 0h12m8 0h12m8 0h12m8 0h12m8 0h12m8 0h12m8 0h12m8 0h12m8 0h12m8 0h12m8 0h12m8 0h12m8 0h12m8 0h12m8 0h12m8 0h12m8 0h12m8 0h12m8 0h12m8 0h12m8 0h12m8 0h12m8 0h12m8 0h12m8 0h12m8 0h12m8 0h12m8 0h12m8 0h12m8 0h12m8 0h12m8 0h12m8 0h12m8 0h12m8 0h12m8 0h12m8 0h12m8 0h12m8 0h12m8 0h12m8 0h12m8 0h12m8 0h12m8 0h12m8 0h6v6m0 8v12m0 8v12m0 8v12m0 8v12m0 8v12m0 8v12m0 8v12m0 8v12m0 8v12m0 8v6h-6m-8 0h-12m-8 0h-12m-8 0h-12m-8 0h-12m-8 0h-12m-8 0h-12m-8 0h-12m-8 0h-12m-8 0h-12m-8 0h-12m-8 0h-12m-8 0h-12m-8 0h-12m-8 0h-12m-8 0h-12m-8 0h-12m-8 0h-12m-8 0h-12m-8 0h-12m-8 0h-12m-8 0h-12m-8 0h-12m-8 0h-12m-8 0h-12m-8 0h-12m-8 0h-12m-8 0h-12m-8 0h-12m-8 0h-12m-8 0h-12m-8 0h-12m-8 0h-12m-8 0h-12m-8 0h-12m-8 0h-12m-8 0h-12m-8 0h-12m-8 0h-12m-8 0h-12m-8 0h-12m-8 0h-12m-8 0h-12m-8 0h-12m-8 0h-12m-8 0h-12m-8 0h-12m-8 0h-12m-8 0h-12m-8 0h-12m-8 0h-12m-8 0h-12m-8 0h-12m-8 0h-12m-8 0h-12m-8 0h-12m-8 0h-12m-8 0h-12m-8 0h-12m-8 0h-12m-8 0h-12m-8 0h-12m-8 0h-12m-8 0h-12m-8 0h-12m-8 0h-12m-8 0h-12m-8 0h-12m-8 0h-12m-8 0h-12m-8 0h-12m-8 0h-12m-8 0h-12m-8 0h-12m-8 0h-12m-8 0h-12m-8 0h-12m-8 0h-12m-8 0h-12m-8 0h-12m-8 0h-12m-8 0h-12m-8 0h-12m-8 0h-6v-6m0-8v-12m0-8v-12m0-8v-12m0-8v-12m0-8v-12m0-8v-12m0-8v-12m0-8v-12m0-8v-12m0-8v-6h6" stroke="#000" stroke-width="4" fill="none"/><path d="M-4280 60h140v60h-140z" stroke="#000" stroke-opacity="0" stroke-width="2" fill="#fff" fill-opacity="0"/><use xlink:href="#a" transform="matrix(1,0,0,1,-4275,65) translate(41.34567901234568 17.888888888888886)"/><use xlink:href="#b" transform="matrix(1,0,0,1,-4275,65) translate(41.864197530864196 39.22222222222222)"/><path d="M-4210 190v-10m0-40c11.05 0 20 8.95 20 20s-8.95 20-20 20-20-8.95-20-20 8.95-20 20-20z" stroke="#3aa6dd" stroke-width="4" fill="#fff"/><path d="M-4210.8 190v-10h1.6v10z" fill="none"/><path d="M-4940 1464h1660v200h-1660z" fill="#fff" fill-opacity=".5"/><path d="M-4926 1464h12m8 0h12m8 0h12m8 0h12m8 0h12m8 0h12m8 0h12m8 0h12m8 0h12m8 0h12m8 0h12m8 0h12m8 0h12m8 0h12m8 0h12m8 0h12m8 0h12m8 0h12m8 0h12m8 0h12m8 0h12m8 0h12m8 0h12m8 0h12m8 0h12m8 0h12m8 0h12m8 0h12m8 0h12m8 0h12m8 0h12m8 0h12m8 0h12m8 0h12m8 0h12m8 0h12m8 0h12m8 0h12m8 0h12m8 0h12m8 0h12m8 0h12m8 0h12m8 0h12m8 0h12m8 0h12m8 0h12m8 0h12m8 0h12m8 0h12m8 0h12m8 0h12m8 0h12m8 0h12m8 0h12m8 0h12m8 0h12m8 0h12m8 0h12m8 0h12m8 0h12m8 0h12m8 0h12m8 0h12m8 0h12m8 0h12m8 0h12m8 0h12m8 0h12m8 0h12m8 0h12m8 0h12m8 0h12m8 0h12m8 0h12m8 0h12m8 0h12m8 0h12m8 0h12m8 0h12m8 0h12m8 0h12m8 0h6v6m0 8v12m0 8v12m0 8v12m0 8v12m0 8v12m0 8v12m0 8v12m0 8v12m0 8v12m0 8v6h-6m-8 0h-12m-8 0h-12m-8 0h-12m-8 0h-12m-8 0h-12m-8 0h-12m-8 0h-12m-8 0h-12m-8 0h-12m-8 0h-12m-8 0h-12m-8 0h-12m-8 0h-12m-8 0h-12m-8 0h-12m-8 0h-12m-8 0h-12m-8 0h-12m-8 0h-12m-8 0h-12m-8 0h-12m-8 0h-12m-8 0h-12m-8 0h-12m-8 0h-12m-8 0h-12m-8 0h-12m-8 0h-12m-8 0h-12m-8 0h-12m-8 0h-12m-8 0h-12m-8 0h-12m-8 0h-12m-8 0h-12m-8 0h-12m-8 0h-12m-8 0h-12m-8 0h-12m-8 0h-12m-8 0h-12m-8 0h-12m-8 0h-12m-8 0h-12m-8 0h-12m-8 0h-12m-8 0h-12m-8 0h-12m-8 0h-12m-8 0h-12m-8 0h-12m-8 0h-12m-8 0h-12m-8 0h-12m-8 0h-12m-8 0h-12m-8 0h-12m-8 0h-12m-8 0h-12m-8 0h-12m-8 0h-12m-8 0h-12m-8 0h-12m-8 0h-12m-8 0h-12m-8 0h-12m-8 0h-12m-8 0h-12m-8 0h-12m-8 0h-12m-8 0h-12m-8 0h-12m-8 0h-12m-8 0h-12m-8 0h-12m-8 0h-12m-8 0h-12m-8 0h-12m-8 0h-12m-8 0h-12m-8 0h-12m-8 0h-12m-8 0h-6v-6m0-8v-12m0-8v-12m0-8v-12m0-8v-12m0-8v-12m0-8v-12m0-8v-12m0-8v-12m0-8v-12m0-8v-6h6" stroke="#000" stroke-width="4" fill="none"/><path d="M-4356 340h500v756h-500z" fill="#fff" fill-opacity=".5"/><path d="M-4342 340h12m8 0h12m8 0h12m8 0h12m8 0h12m8 0h12m8 0h12m8 0h12m8 0h12m8 0h12m8 0h12m8 0h12m8 0h12m8 0h12m8 0h12m8 0h12m8 0h12m8 0h12m8 0h12m8 0h12m8 0h12m8 0h12m8 0h12m8 0h12m8 0h6v5.97m0 7.96v11.93m0 7.96v11.94m0 7.96v11.93m0 7.96v11.95m0 7.96v11.94m0 7.96v11.94m0 7.95v11.93m0 7.96v11.93m0 7.95v11.94m0 7.96v11.94m0 7.95v11.94m0 7.97v11.94m0 7.96v11.94m0 7.96v11.93m0 7.95v11.94m0 7.95v11.93m0 7.96v11.94m0 7.96v11.93m0 7.96v11.94m0 7.96v11.93m0 7.96v11.94m0 7.96v11.93m0 7.96v11.95m0 7.96v11.94m0 7.96v11.94m0 7.95v11.93m0 7.96v11.93m0 7.95v11.94m0 7.96v11.94m0 7.95v11.94m0 7.97v11.94m0 7.96v11.94m0 7.96v11.93m0 7.95v11.94m0 7.95v11.93m0 7.96v11.94m0 7.96v11.93m0 7.96v5.97h-6m-8 0h-12m-8 0h-12m-8 0h-12m-8 0h-12m-8 0h-12m-8 0h-12m-8 0h-12m-8 0h-12m-8 0h-12m-8 0h-12m-8 0h-12m-8 0h-12m-8 0h-12m-8 0h-12m-8 0h-12m-8 0h-12m-8 0h-12m-8 0h-12m-8 0h-12m-8 0h-12m-8 0h-12m-8 0h-12m-8 0h-12m-8 0h-12m-8 0h-6v-5.97m0-7.96v-11.93m0-7.96v-11.94m0-7.96v-11.93m0-7.96v-11.95m0-7.96v-11.94m0-7.96v-11.94m0-7.95v-11.93m0-7.96v-11.93m0-7.95v-11.94m0-7.96v-11.94m0-7.95V871.2m0-7.97V851.3m0-7.96V831.4m0-7.96V811.5m0-7.95V791.6m0-7.95v-11.93m0-7.96v-11.94m0-7.96v-11.93m0-7.96v-11.94m0-7.96v-11.93m0-7.96v-11.94m0-7.96v-11.93m0-7.96v-11.95m0-7.96v-11.94m0-7.96v-11.94m0-7.95v-11.93m0-7.96v-11.93m0-7.95v-11.94m0-7.96v-11.94m0-7.95V493.2m0-7.97V473.3m0-7.96V453.4m0-7.96V433.5m0-7.95V413.6m0-7.95v-11.93m0-7.96v-11.94m0-7.96v-11.93m0-7.96V340h6" stroke="#000" stroke-width="4" fill="none"/><path d="M-4036 380h140v120h-140z" stroke="#000" stroke-width="2" fill="#c1e4f7"/><path d="M-4056 400h40v20h-40zM-4056 460h40v20h-40z" stroke="#000" stroke-width="2" fill="#c1e4f7"/><use xlink:href="#c" transform="matrix(1,0,0,1,-4024,392) translate(28.5 40.8)"/><use xlink:href="#d" transform="matrix(1,0,0,1,-4024,392) translate(41.5 62.4)"/><path d="M-4340 460h220v96.4h-220z" stroke="#000" stroke-opacity="0" stroke-width="2" fill="#fff" fill-opacity="0"/><use xlink:href="#e" transform="matrix(1,0,0,1,-4335,465) translate(0 14.4)"/><use xlink:href="#f" transform="matrix(1,0,0,1,-4335,465) translate(10.95 14.4)"/><use xlink:href="#g" transform="matrix(1,0,0,1,-4335,465) translate(47.95 14.4)"/><use xlink:href="#h" transform="matrix(1,0,0,1,-4335,465) translate(0 36)"/><use xlink:href="#i" transform="matrix(1,0,0,1,-4335,465) translate(10.95 36)"/><use xlink:href="#j" transform="matrix(1,0,0,1,-4335,465) translate(67.85000000000001 36)"/><path d="M-4940 340h500v756h-500z" fill="#fff" fill-opacity=".5"/><path d="M-4926 340h12m8 0h12m8 0h12m8 0h12m8 0h12m8 0h12m8 0h12m8 0h12m8 0h12m8 0h12m8 0h12m8 0h12m8 0h12m8 0h12m8 0h12m8 0h12m8 0h12m8 0h12m8 0h12m8 0h12m8 0h12m8 0h12m8 0h12m8 0h12m8 0h6v5.97m0 7.96v11.93m0 7.96v11.94m0 7.96v11.93m0 7.96v11.95m0 7.96v11.94m0 7.96v11.94m0 7.95v11.93m0 7.96v11.93m0 7.95v11.94m0 7.96v11.94m0 7.95v11.94m0 7.97v11.94m0 7.96v11.94m0 7.96v11.93m0 7.95v11.94m0 7.95v11.93m0 7.96v11.94m0 7.96v11.93m0 7.96v11.94m0 7.96v11.93m0 7.96v11.94m0 7.96v11.93m0 7.96v11.95m0 7.96v11.94m0 7.96v11.94m0 7.95v11.93m0 7.96v11.93m0 7.95v11.94m0 7.96v11.94m0 7.95v11.94m0 7.97v11.94m0 7.96v11.94m0 7.96v11.93m0 7.95v11.94m0 7.95v11.93m0 7.96v11.94m0 7.96v11.93m0 7.96v5.97h-6m-8 0h-12m-8 0h-12m-8 0h-12m-8 0h-12m-8 0h-12m-8 0h-12m-8 0h-12m-8 0h-12m-8 0h-12m-8 0h-12m-8 0h-12m-8 0h-12m-8 0h-12m-8 0h-12m-8 0h-12m-8 0h-12m-8 0h-12m-8 0h-12m-8 0h-12m-8 0h-12m-8 0h-12m-8 0h-12m-8 0h-12m-8 0h-12m-8 0h-6v-5.97m0-7.96v-11.93m0-7.96v-11.94m0-7.96v-11.93m0-7.96v-11.95m0-7.96v-11.94m0-7.96v-11.94m0-7.95v-11.93m0-7.96v-11.93m0-7.95v-11.94m0-7.96v-11.94m0-7.95V871.2m0-7.97V851.3m0-7.96V831.4m0-7.96V811.5m0-7.95V791.6m0-7.95v-11.93m0-7.96v-11.94m0-7.96v-11.93m0-7.96v-11.94m0-7.96v-11.93m0-7.96v-11.94m0-7.96v-11.93m0-7.96v-11.95m0-7.96v-11.94m0-7.96v-11.94m0-7.95v-11.93m0-7.96v-11.93m0-7.95v-11.94m0-7.96v-11.94m0-7.95V493.2m0-7.97V473.3m0-7.96V453.4m0-7.96V433.5m0-7.95V413.6m0-7.95v-11.93m0-7.96v-11.94m0-7.96v-11.93m0-7.96V340h6" stroke="#000" stroke-width="4" fill="none"/><path d="M-3420 1328c0 6.63-26.86 12-60 12s-60-5.37-60-12v-96c0-6.63 26.86-12 60-12s60 5.37 60 12z" stroke="#000" stroke-width="2" fill="#c7e8ac"/><path d="M-3420 1232c0 6.63-26.86 12-60 12s-60-5.37-60-12" stroke="#000" stroke-width="2" fill="none"/><use xlink:href="#k" transform="matrix(1,0,0,1,-3535,1249) translate(32 35.8)"/><use xlink:href="#l" transform="matrix(1,0,0,1,-3535,1249) translate(23.525 57.4)"/><path d="M-4616 380h140v120h-140z" stroke="#000" stroke-width="2" fill="#c1e4f7"/><path d="M-4636 400h40v20h-40zM-4636 460h40v20h-40z" stroke="#000" stroke-width="2" fill="#c1e4f7"/><use xlink:href="#m" transform="matrix(1,0,0,1,-4604,392) translate(2.0749999999999957 40.8)"/><use xlink:href="#d" transform="matrix(1,0,0,1,-4604,392) translate(41.5 62.4)"/><path d="M-3540 1504h140v120h-140z" stroke="#000" stroke-width="2" fill="#ffeca9"/><path d="M-3560 1524h40v20h-40zM-3560 1584h40v20h-40z" stroke="#000" stroke-width="2" fill="#ffeca9"/><use xlink:href="#n" transform="matrix(1,0,0,1,-3528,1515.9999999999977) translate(33 40.8)"/><use xlink:href="#o" transform="matrix(1,0,0,1,-3528,1515.9999999999977) translate(13.074999999999996 62.4)"/><path d="M-3480 1502v-142.5" fill="none"/><path d="M-3480 1502v-3.05m0-4.07v-6.1m0-4.08v-6.1m0-4.08v-6.1m0-4.08v-6.1m0-4.08v-6.1m0-4.08v-6.1m0-4.08v-6.1m0-4.07v-6.1m0-4.08v-6.1m0-4.08v-6.1m0-4.08v-6.12m0-4.07v-6.1m0-4.07v-6.1m0-4.07v-3.06" stroke="#000" stroke-width="2" fill="none"/><path d="M-3479 1503h-2v-1.03h2z"/><path d="M-3480 1344.24l4.64 14.26h-9.28z" stroke="#000" stroke-width="2"/><use xlink:href="#p" transform="matrix(1,0,0,1,-3472.0000000000005,1411.2002924368999) translate(0 14.4)"/><path d="M-3780 340h500v756h-500z" fill="#fff" fill-opacity=".5"/><path d="M-3766 340h12m8 0h12m8 0h12m8 0h12m8 0h12m8 0h12m8 0h12m8 0h12m8 0h12m8 0h12m8 0h12m8 0h12m8 0h12m8 0h12m8 0h12m8 0h12m8 0h12m8 0h12m8 0h12m8 0h12m8 0h12m8 0h12m8 0h12m8 0h12m8 0h6v5.97m0 7.96v11.93m0 7.96v11.94m0 7.96v11.93m0 7.96v11.95m0 7.96v11.94m0 7.96v11.94m0 7.95v11.93m0 7.96v11.93m0 7.95v11.94m0 7.96v11.94m0 7.95v11.94m0 7.97v11.94m0 7.96v11.94m0 7.96v11.93m0 7.95v11.94m0 7.95v11.93m0 7.96v11.94m0 7.96v11.93m0 7.96v11.94m0 7.96v11.93m0 7.96v11.94m0 7.96v11.93m0 7.96v11.95m0 7.96v11.94m0 7.96v11.94m0 7.95v11.93m0 7.96v11.93m0 7.95v11.94m0 7.96v11.94m0 7.95v11.94m0 7.97v11.94m0 7.96v11.94m0 7.96v11.93m0 7.95v11.94m0 7.95v11.93m0 7.96v11.94m0 7.96v11.93m0 7.96v5.97h-6m-8 0h-12m-8 0h-12m-8 0h-12m-8 0h-12m-8 0h-12m-8 0h-12m-8 0h-12m-8 0h-12m-8 0h-12m-8 0h-12m-8 0h-12m-8 0h-12m-8 0h-12m-8 0h-12m-8 0h-12m-8 0h-12m-8 0h-12m-8 0h-12m-8 0h-12m-8 0h-12m-8 0h-12m-8 0h-12m-8 0h-12m-8 0h-12m-8 0h-6v-5.97m0-7.96v-11.93m0-7.96v-11.94m0-7.96v-11.93m0-7.96v-11.95m0-7.96v-11.94m0-7.96v-11.94m0-7.95v-11.93m0-7.96v-11.93m0-7.95v-11.94m0-7.96v-11.94m0-7.95V871.2m0-7.97V851.3m0-7.96V831.4m0-7.96V811.5m0-7.95V791.6m0-7.95v-11.93m0-7.96v-11.94m0-7.96v-11.93m0-7.96v-11.94m0-7.96v-11.93m0-7.96v-11.94m0-7.96v-11.93m0-7.96v-11.95m0-7.96v-11.94m0-7.96v-11.94m0-7.95v-11.93m0-7.96v-11.93m0-7.95v-11.94m0-7.96v-11.94m0-7.95V493.2m0-7.97V473.3m0-7.96V453.4m0-7.96V433.5m0-7.95V413.6m0-7.95v-11.93m0-7.96v-11.94m0-7.96v-11.93m0-7.96V340h6" stroke="#000" stroke-width="4" fill="none"/><path d="M-3911.32 1220c8.46 0 15.32 26.86 15.32 60s-6.86 60-15.32 60h-122.53c-8.46 0-15.32-26.86-15.32-60s6.86-60 15.32-60z" stroke="#000" stroke-width="2" fill="#c7e8ac"/><path d="M-3911.32 1340c-8.46 0-15.3-26.86-15.3-60s6.84-60 15.3-60" stroke="#000" stroke-width="2" fill="none"/><use xlink:href="#q" transform="matrix(1,0,0,1,-4044.1666666666665,1225) translate(33.5 47.8)"/><use xlink:href="#r" transform="matrix(1,0,0,1,-4044.1666666666665,1225) translate(29.5 69.4)"/><path d="M-4036 670h140v120h-140z" stroke="#000" stroke-width="2" fill="#ffeca9"/><path d="M-4056 690h40v20h-40zM-4056 750h40v20h-40z" stroke="#000" stroke-width="2" fill="#ffeca9"/><use xlink:href="#k" transform="matrix(1,0,0,1,-4024,682.0000000000001) translate(33 30)"/><use xlink:href="#s" transform="matrix(1,0,0,1,-4024,682.0000000000001) translate(13.074999999999996 51.6)"/><use xlink:href="#t" transform="matrix(1,0,0,1,-4024,682.0000000000001) translate(26.049999999999997 73.2)"/><path d="M-3969.17 502v148.5" fill="none"/><path d="M-3969.17 502v2.97m0 3.96v5.94m0 3.96v5.94m0 3.96v5.94m0 3.96v5.94m0 3.96v5.94m0 3.96v5.94m0 3.96v5.94m0 3.96v5.94m0 3.96v5.94m0 3.96v5.94m0 3.96v5.94m0 3.96v5.94m0 3.96v5.94m0 3.96v5.94m0 3.96v2.97" stroke="#000" stroke-width="2" fill="none"/><path d="M-3968.17 502.03h-2V501h2z"/><path d="M-3969.17 665.76l-4.63-14.26h9.27z" stroke="#000" stroke-width="2"/><use xlink:href="#p" transform="matrix(1,0,0,1,-4057.0166666666664,574.2) translate(0 14.4)"/><path d="M-3976 792v408.5" fill="none"/><path d="M-3976 792v3m0 3.97v5.98m0 4v5.97m0 3.98v5.98m0 3.98v5.98m0 4v5.97m0 4v5.97m0 3.98v5.98m0 4v5.97m0 3.98v5.98m0 3.98v5.98m0 4v5.97m0 3.97v5.98m0 3.98v5.98m0 4v5.98m0 3.98v5.98m0 3.98v5.98m0 4v5.97m0 3.98v5.98m0 3.98v6m0 3.98v5.98m0 3.98v5.98m0 4v5.96m0 4v5.97m0 3.98v5.98m0 4v5.97m0 4v5.97m0 3.98v5.98m0 4v5.96m0 4v5.97m0 3.98v6m0 3.98v5.97m0 4v5.97m0 3.98v5.98m0 4v5.96m0 4v5.97m0 4v5.97m0 4v5.96m0 4v5.97m0 3.98v5.98m0 4v5.96m0 4v2.98" stroke="#000" stroke-width="2" fill="none"/><path d="M-3975 792.03h-2V791h2z"/><path d="M-3976 1215.76l-4.64-14.26h9.28z" stroke="#000" stroke-width="2"/><use xlink:href="#p" transform="matrix(1,0,0,1,-3968.0000000000005,1128.5333333333333) translate(0 14.4)"/><path d="M-4036 1504h140v120h-140z" stroke="#000" stroke-width="2" fill="#ffeca9"/><path d="M-4056 1524h40v20h-40zM-4056 1584h40v20h-40z" stroke="#000" stroke-width="2" fill="#ffeca9"/><use xlink:href="#k" transform="matrix(1,0,0,1,-4024,1515.9999999999977) translate(33 30)"/><use xlink:href="#u" transform="matrix(1,0,0,1,-4024,1515.9999999999977) translate(15.549999999999997 51.6)"/><use xlink:href="#t" transform="matrix(1,0,0,1,-4024,1515.9999999999977) translate(26.049999999999997 73.2)"/><path d="M-3976 1502v-142.5" fill="none"/><path d="M-3976 1502v-3.05m0-4.07v-6.1m0-4.08v-6.1m0-4.08v-6.1m0-4.08v-6.1m0-4.08v-6.1m0-4.08v-6.1m0-4.08v-6.1m0-4.07v-6.1m0-4.08v-6.1m0-4.08v-6.1m0-4.08v-6.12m0-4.07v-6.1m0-4.07v-6.1m0-4.07v-3.06" stroke="#000" stroke-width="2" fill="none"/><path d="M-3975 1503h-2v-1.03h2z"/><path d="M-3976 1344.24l4.64 14.26h-9.28z" stroke="#000" stroke-width="2"/><use xlink:href="#v" transform="matrix(1,0,0,1,-3968,1411.199999999999) translate(0 14.4)"/><path d="M-3894 1564h334.5" fill="none"/><path d="M-3894 1564h3.04m4.06 0h6.08m4.05 0h6.08m4.07 0h6.08m4.05 0h6.1m4.04 0h6.08m4.06 0h6.08m4.05 0h6.1m4.05 0h6.08m4.06 0h6.07m4.05 0h6.08m4.06 0h6.08m4.05 0h6.08m4.05 0h6.08m4.07 0h6.08m4.05 0h6.1m4.04 0h6.08m4.06 0h6.08m4.05 0h6.1m4.05 0h6.08m4.06 0h6.07m4.05 0h6.08m4.06 0h6.08m4.05 0h6.08m4.05 0h6.08m4.07 0h6.08m4.05 0h6.08m4.06 0h6.08m4.06 0h6.08m4.05 0h6.1m4.05 0h6.08m4.05 0h6.1m4.04 0h6.08m4.06 0h3.04" stroke="#000" stroke-width="2" fill="none"/><path d="M-3893.97 1565h-1.03v-2h1.03z"/><path d="M-3544.24 1564l-14.26 4.64v-9.28z" stroke="#000" stroke-width="2"/><use xlink:href="#p" transform="matrix(1,0,0,1,-3777.26244493392,1538.3999999999978) translate(0 14.4)"/><path d="M-4496 1328c0 6.63-26.86 12-60 12s-60-5.37-60-12v-96c0-6.63 26.86-12 60-12s60 5.37 60 12z" stroke="#000" stroke-width="2" fill="#c7e8ac"/><path d="M-4496 1232c0 6.63-26.86 12-60 12s-60-5.37-60-12" stroke="#000" stroke-width="2" fill="none"/><use xlink:href="#w" transform="matrix(1,0,0,1,-4611,1249) translate(5.574999999999996 35.8)"/><use xlink:href="#l" transform="matrix(1,0,0,1,-4611,1249) translate(23.525 57.4)"/><path d="M-4920 460h248.83v80H-4920z" stroke="#000" stroke-opacity="0" stroke-width="2" fill="#fff" fill-opacity="0"/><use xlink:href="#e" transform="matrix(1,0,0,1,-4915,465) translate(0 14.4)"/><use xlink:href="#f" transform="matrix(1,0,0,1,-4915,465) translate(10.95 14.4)"/><use xlink:href="#x" transform="matrix(1,0,0,1,-4915,465) translate(47.95 14.4)"/><use xlink:href="#e" transform="matrix(1,0,0,1,-4915,465) translate(0 36)"/><use xlink:href="#y" transform="matrix(1,0,0,1,-4915,465) translate(10.95 36)"/><use xlink:href="#z" transform="matrix(1,0,0,1,-4915,465) translate(69.85000000000001 36)"/><use xlink:href="#h" transform="matrix(1,0,0,1,-4915,465) translate(0 57.6)"/><use xlink:href="#i" transform="matrix(1,0,0,1,-4915,465) translate(10.95 57.6)"/><use xlink:href="#A" transform="matrix(1,0,0,1,-4915,465) translate(67.85000000000001 57.6)"/><path d="M-4616 940h140v120h-140z" stroke="#000" stroke-width="2" fill="#ffeca9"/><path d="M-4636 960h40v20h-40zM-4636 1020h40v20h-40z" stroke="#000" stroke-width="2" fill="#ffeca9"/><use xlink:href="#B" transform="matrix(1,0,0,1,-4604,952) translate(6.574999999999996 40.8)"/><use xlink:href="#o" transform="matrix(1,0,0,1,-4604,952) translate(13.074999999999996 62.4)"/><path d="M-4556 1062v138.5" fill="none"/><path d="M-4556 1062v2.97m0 3.95v5.94m0 3.96v5.93m0 3.96v5.95m0 3.95v5.94m0 3.96v5.93m0 3.96v5.92m0 3.96v5.94m0 3.95v5.94m0 3.97v5.93m0 3.96v5.93m0 3.95v5.94m0 3.94v5.94m0 3.96v5.93m0 3.96v2.97" stroke="#000" stroke-width="2" fill="none"/><path d="M-4555 1062.03h-2V1061h2z"/><path d="M-4556 1215.76l-4.64-14.26h9.28z" stroke="#000" stroke-width="2"/><use xlink:href="#C" transform="matrix(1,0,0,1,-4548,1129.199707563099) translate(0 14.4)"/><use xlink:href="#D" transform="matrix(1,0,0,1,-4548,1129.199707563099) translate(61.95 14.4)"/><use xlink:href="#E" transform="matrix(1,0,0,1,-4548,1129.199707563099) translate(71.95 14.4)"/><path d="M-4038 1564h-418.5" fill="none"/><path d="M-4038 1564h-3m-3.97 0h-5.98m-4 0h-5.97m-3.98 0h-5.98m-4 0h-5.97m-3.98 0h-5.98m-4 0h-5.97m-4 0h-5.97m-3.98 0h-5.98m-4 0h-5.97m-3.98 0h-5.98m-4 0h-5.97m-3.98 0h-5.98m-4 0h-5.96m-4 0h-5.97m-3.97 0h-5.98m-4 0h-5.97m-3.98 0h-5.98m-4 0h-5.97m-3.98 0h-5.98m-4 0h-5.97m-4 0h-5.97m-3.98 0h-5.98m-4 0h-5.97m-3.98 0h-5.98m-4 0h-5.97m-3.98 0h-5.98m-4 0h-5.96m-4 0h-5.97m-3.97 0h-5.98m-4 0h-5.97m-3.98 0h-5.98m-4 0h-5.96m-4 0h-5.97m-4 0h-5.97m-4 0h-5.97m-3.98 0h-5.98m-4 0h-5.97m-3.98 0h-5.98m-4 0h-5.96m-3.98 0h-5.98m-3.98 0h-5.98m-4 0h-2.98" stroke="#000" stroke-width="2" fill="none"/><path d="M-4037 1565h-1.03v-2h1.03z"/><path d="M-4471.76 1564l14.26-4.64v9.28z" stroke="#000" stroke-width="2"/><use xlink:href="#v" transform="matrix(1,0,0,1,-4242.245635298308,1538.3999999999978) translate(0 14.4)"/><path d="M-4210 192v128h-346v57" stroke="#3aa6dd" stroke-width="4" fill="none"/><path d="M-4208 192.05h-4V190h4zM-4554 379h-4v-2.05h4z" fill="#3aa6dd"/><path d="M-4210 192v128h234v57" stroke="#3aa6dd" stroke-width="4" fill="none"/><path d="M-4208 192.05h-4V190h4zM-3974 379h-4v-2.05h4z" fill="#3aa6dd"/><path d="M-4616 670h140v120h-140z" stroke="#000" stroke-width="2" fill="#ffeca9"/><path d="M-4636 690h40v20h-40zM-4636 750h40v20h-40z" stroke="#000" stroke-width="2" fill="#ffeca9"/><use xlink:href="#B" transform="matrix(1,0,0,1,-4604,682.0000000000001) translate(6.574999999999996 40.8)"/><use xlink:href="#F" transform="matrix(1,0,0,1,-4604,682.0000000000001) translate(26.049999999999997 62.4)"/><path d="M-4880 670h140v120h-140z" stroke="#000" stroke-width="2" fill="#ffeca9"/><path d="M-4900 690h40v20h-40zM-4900 750h40v20h-40z" stroke="#000" stroke-width="2" fill="#ffeca9"/><use xlink:href="#B" transform="matrix(1,0,0,1,-4868,682.0000000000001) translate(6.574999999999996 40.8)"/><use xlink:href="#G" transform="matrix(1,0,0,1,-4868,682.0000000000001) translate(5.074999999999996 62.4)"/><path d="M-4556 502v148.5" fill="none"/><path d="M-4556 502v2.97m0 3.96v5.94m0 3.96v5.94m0 3.96v5.94m0 3.96v5.94m0 3.96v5.94m0 3.96v5.94m0 3.96v5.94m0 3.96v5.94m0 3.96v5.94m0 3.96v5.94m0 3.96v5.94m0 3.96v5.94m0 3.96v5.94m0 3.96v5.94m0 3.96v2.97" stroke="#000" stroke-width="2" fill="none"/><path d="M-4555 502.03h-2V501h2z"/><path d="M-4556 665.76l-4.64-14.26h9.28z" stroke="#000" stroke-width="2"/><path d="M-4556 792v128.5" fill="none"/><path d="M-4556 792v2.97m0 3.95v5.93m0 3.95v5.93m0 3.96v5.92m0 3.95v5.93m0 3.96v5.93m0 3.94v5.93m0 3.96v5.93m0 3.95v5.94m0 3.95v5.93m0 3.95v5.93m0 3.96v5.93m0 3.95v5.93m0 3.95v2.97" stroke="#000" stroke-width="2" fill="none"/><path d="M-4555 792.03h-2V791h2z"/><path d="M-4556 935.76l-4.64-14.26h9.28z" stroke="#000" stroke-width="2"/><use xlink:href="#C" transform="matrix(1,0,0,1,-4694.8,854.2) translate(0 14.4)"/><use xlink:href="#D" transform="matrix(1,0,0,1,-4694.8,854.2) translate(61.95 14.4)"/><use xlink:href="#E" transform="matrix(1,0,0,1,-4694.8,854.2) translate(71.95 14.4)"/><path d="M-4618 730h-102.5" fill="none"/><path d="M-4618 730h-3.07m-4.1 0h-6.15m-4.1 0h-6.15m-4.1 0h-6.15m-4.1 0h-6.15m-4.1 0h-6.15m-4.1 0h-6.15m-4.1 0h-6.15m-4.1 0h-6.15m-4.1 0h-6.15m-4.1 0h-3.08" stroke="#000" stroke-width="2" fill="none"/><path d="M-4617 731h-1.03v-2h1.03z"/><path d="M-4735.76 730l14.26-4.64v9.28z" stroke="#000" stroke-width="2"/><use xlink:href="#H" transform="matrix(1,0,0,1,-4713.5,704.4000000000002) translate(0 14.4)"/><path d="M-4300 670h140v120h-140z" stroke="#000" stroke-width="2" fill="#ffeca9"/><path d="M-4320 690h40v20h-40zM-4320 750h40v20h-40z" stroke="#000" stroke-width="2" fill="#ffeca9"/><use xlink:href="#n" transform="matrix(1,0,0,1,-4288,682.0000000000001) translate(33 40.8)"/><use xlink:href="#G" transform="matrix(1,0,0,1,-4288,682.0000000000001) translate(5.074999999999996 62.4)"/><path d="M-4038 730h-102.5" fill="none"/><path d="M-4038 730h-3.07m-4.1 0h-6.15m-4.1 0h-6.15m-4.1 0h-6.15m-4.1 0h-6.15m-4.1 0h-6.15m-4.1 0h-6.15m-4.1 0h-6.15m-4.1 0h-6.15m-4.1 0h-6.15m-4.1 0h-3.08" stroke="#000" stroke-width="2" fill="none"/><path d="M-4037 731h-1.03v-2h1.03z"/><path d="M-4155.76 730l14.26-4.64v9.28z" stroke="#000" stroke-width="2"/><use xlink:href="#H" transform="matrix(1,0,0,1,-4133.5,704.4000000000002) translate(0 14.4)"/><path d="M-4616 1504h140v120h-140z" stroke="#000" stroke-width="2" fill="#ffeca9"/><path d="M-4636 1524h40v20h-40zM-4636 1584h40v20h-40z" stroke="#000" stroke-width="2" fill="#ffeca9"/><use xlink:href="#B" transform="matrix(1,0,0,1,-4604,1515.9999999999977) translate(6.574999999999996 40.8)"/><use xlink:href="#o" transform="matrix(1,0,0,1,-4604,1515.9999999999977) translate(13.074999999999996 62.4)"/><path d="M-4556 1502v-142.5" fill="none"/><path d="M-4556 1502v-3.05m0-4.07v-6.1m0-4.08v-6.1m0-4.08v-6.1m0-4.08v-6.1m0-4.08v-6.1m0-4.08v-6.1m0-4.08v-6.1m0-4.07v-6.1m0-4.08v-6.1m0-4.08v-6.1m0-4.08v-6.12m0-4.07v-6.1m0-4.07v-6.1m0-4.07v-3.06" stroke="#000" stroke-width="2" fill="none"/><path d="M-4555 1503h-2v-1.03h2z"/><path d="M-4556 1344.24l4.64 14.26h-9.28z" stroke="#000" stroke-width="2"/><use xlink:href="#v" transform="matrix(1,0,0,1,-4548.000000000001,1411.2002924368999) translate(0 14.4)"/><path d="M-3480 502v148.5" fill="none"/><path d="M-3480 502v2.97m0 3.96v5.94m0 3.96v5.94m0 3.96v5.94m0 3.96v5.94m0 3.96v5.94m0 3.96v5.94m0 3.96v5.94m0 3.96v5.94m0 3.96v5.94m0 3.96v5.94m0 3.96v5.94m0 3.96v5.94m0 3.96v5.94m0 3.96v5.94m0 3.96v2.97" stroke="#000" stroke-width="2" fill="none"/><path d="M-3479 502.03h-2V501h2z"/><path d="M-3480 665.76l-4.64-14.26h9.28z" stroke="#000" stroke-width="2"/><g><use xlink:href="#v" transform="matrix(1,0,0,1,-3472,550.9375239525349) translate(0 14.4)"/></g><path d="M-3540 670h140v120h-140z" stroke="#000" stroke-width="2" fill="#ffeca9"/><path d="M-3560 690h40v20h-40zM-3560 750h40v20h-40z" stroke="#000" stroke-width="2" fill="#ffeca9"/><g><use xlink:href="#n" transform="matrix(1,0,0,1,-3528,682.0000000000001) translate(33 40.8)"/><use xlink:href="#o" transform="matrix(1,0,0,1,-3528,682.0000000000001) translate(13.074999999999996 62.4)"/></g><path d="M-3480 792v408.5" fill="none"/><path d="M-3480 792v3m0 3.97v5.98m0 4v5.97m0 3.98v5.98m0 3.98v5.98m0 4v5.97m0 4v5.97m0 3.98v5.98m0 4v5.97m0 3.98v5.98m0 3.98v5.98m0 4v5.97m0 3.97v5.98m0 3.98v5.98m0 4v5.98m0 3.98v5.98m0 3.98v5.98m0 4v5.97m0 3.98v5.98m0 3.98v6m0 3.98v5.98m0 3.98v5.98m0 3.98v5.98m0 4v5.97m0 3.98v5.98m0 4v5.97m0 4v5.97m0 3.98v5.98m0 3.98v5.98m0 4v5.97m0 3.98v6m0 3.97v5.98m0 4v5.97m0 3.98v5.98m0 4v5.96m0 4v5.97m0 4v5.97m0 4v5.96m0 4v5.97m0 3.98v5.98m0 4v5.96m0 4v2.98" stroke="#000" stroke-width="2" fill="none"/><path d="M-3479 792.03h-2V791h2z"/><path d="M-3480 1215.76l-4.64-14.26h9.28z" stroke="#000" stroke-width="2"/><g><use xlink:href="#v" transform="matrix(1,0,0,1,-3472,1128.5333333333333) translate(0 14.4)"/></g><path d="M-3760 460h220v80h-220z" stroke="#000" stroke-opacity="0" stroke-width="2" fill="#fff" fill-opacity="0"/><g><use xlink:href="#e" transform="matrix(1,0,0,1,-3755,465) translate(0 14.4)"/><use xlink:href="#y" transform="matrix(1,0,0,1,-3755,465) translate(10.95 14.4)"/><use xlink:href="#j" transform="matrix(1,0,0,1,-3755,465) translate(69.85000000000001 14.4)"/></g><path d="M-3540 380h140v120h-140z" stroke="#000" stroke-width="2" fill="#c1e4f7"/><path d="M-3560 400h40v20h-40zM-3560 460h40v20h-40z" stroke="#000" stroke-width="2" fill="#c1e4f7"/><g><use xlink:href="#c" transform="matrix(1,0,0,1,-3528,392) translate(28.5 40.8)"/><use xlink:href="#d" transform="matrix(1,0,0,1,-3528,392) translate(41.5 62.4)"/></g><path d="M-4210 192v128h730v57" stroke="#3aa6dd" stroke-width="4" fill="none"/><path d="M-4208 192.05h-4V190h4zM-3478 379h-4v-2.05h4z" fill="#3aa6dd"/><path d="M-4356 360h190v98h-190z" stroke="#000" stroke-opacity="0" stroke-width="2" fill="#fff" fill-opacity="0"/><g><use xlink:href="#I" transform="matrix(1,0,0,1,-4351,365) translate(27.1604938271605 17.77777777777778)"/><use xlink:href="#J" transform="matrix(1,0,0,1,-4351,365) translate(53.0246913580247 44.44444444444444)"/><use xlink:href="#K" transform="matrix(1,0,0,1,-4351,365) translate(56.75925925925927 71.11111111111111)"/></g><path d="M-4920 360h200v98h-200z" stroke="#000" stroke-opacity="0" stroke-width="2" fill="#fff" fill-opacity="0"/><g><use xlink:href="#I" transform="matrix(1,0,0,1,-4915,365) translate(32.1604938271605 17.77777777777778)"/><use xlink:href="#L" transform="matrix(1,0,0,1,-4915,365) translate(3.8271604938271793 44.44444444444444)"/></g><path d="M-3780 360h200v98h-200z" stroke="#000" stroke-opacity="0" stroke-width="2" fill="#fff" fill-opacity="0"/><g><use xlink:href="#I" transform="matrix(1,0,0,1,-3775,365) translate(32.1604938271605 17.77777777777778)"/><use xlink:href="#M" transform="matrix(1,0,0,1,-3775,365) translate(58.0246913580247 44.44444444444444)"/><use xlink:href="#N" transform="matrix(1,0,0,1,-3775,365) translate(49.44444444444444 71.11111111111111)"/></g><path d="M-4900 1580h220v80h-220z" stroke="#000" stroke-opacity="0" stroke-width="2" fill="#fff" fill-opacity="0"/><g><use xlink:href="#e" transform="matrix(1,0,0,1,-4895,1585) translate(0 14.4)"/><use xlink:href="#O" transform="matrix(1,0,0,1,-4895,1585) translate(10.95 14.4)"/><use xlink:href="#j" transform="matrix(1,0,0,1,-4895,1585) translate(80.9 14.4)"/></g><path d="M-4920 1480h200v98h-200z" stroke="#000" stroke-opacity="0" stroke-width="2" fill="#fff" fill-opacity="0"/><g><use xlink:href="#I" transform="matrix(1,0,0,1,-4915,1485) translate(32.1604938271605 17.77777777777778)"/><use xlink:href="#P" transform="matrix(1,0,0,1,-4915,1485) translate(58.0246913580247 44.44444444444444)"/><use xlink:href="#Q" transform="matrix(1,0,0,1,-4915,1485) translate(24.10493827160495 71.11111111111111)"/></g><path d="M-4900 1200h200v98h-200z" stroke="#000" stroke-opacity="0" stroke-width="2" fill="#fff" fill-opacity="0"/><g><use xlink:href="#I" transform="matrix(1,0,0,1,-4895,1205) translate(32.1604938271605 17.77777777777778)"/><use xlink:href="#R" transform="matrix(1,0,0,1,-4895,1205) translate(-7.129629629629605 44.44444444444444)"/></g><defs><path d="M233-177c-1 41-23 64-60 70L243 0h-38l-65-103H63V0H30v-248c88 3 205-21 203 71zM63-129c60-2 137 13 137-47 0-61-80-42-137-45v92" id="S"/><path d="M30 0v-248h187v28H63v79h144v27H63v87h162V0H30" id="T"/><path d="M185-189c-5-48-123-54-124 2 14 75 158 14 163 119 3 78-121 87-175 55-17-10-28-26-33-46l33-7c5 56 141 63 141-1 0-78-155-14-162-118-5-82 145-84 179-34 5 7 8 16 11 25" id="U"/><path d="M127-220V0H93v-220H8v-28h204v28h-85" id="V"/><g id="a"><use transform="matrix(0.04938271604938272,0,0,0.04938271604938272,0,0)" xlink:href="#S"/><use transform="matrix(0.04938271604938272,0,0,0.04938271604938272,12.790123456790125,0)" xlink:href="#T"/><use transform="matrix(0.04938271604938272,0,0,0.04938271604938272,24.641975308641978,0)" xlink:href="#U"/><use transform="matrix(0.04938271604938272,0,0,0.04938271604938272,36.49382716049383,0)" xlink:href="#V"/></g><path d="M197 0v-115H63V0H30v-248h33v105h134v-105h34V0h-34" id="W"/><path d="M30-248c87 1 191-15 191 75 0 78-77 80-158 76V0H30v-248zm33 125c57 0 124 11 124-50 0-59-68-47-124-48v98" id="X"/><g id="b"><use transform="matrix(0.04938271604938272,0,0,0.04938271604938272,0,0)" xlink:href="#W"/><use transform="matrix(0.04938271604938272,0,0,0.04938271604938272,12.790123456790125,0)" xlink:href="#V"/><use transform="matrix(0.04938271604938272,0,0,0.04938271604938272,23.60493827160494,0)" xlink:href="#V"/><use transform="matrix(0.04938271604938272,0,0,0.04938271604938272,34.41975308641975,0)" xlink:href="#X"/></g><path d="M108 0H70L1-190h34L89-25l56-165h34" id="Y"/><path d="M100-194c63 0 86 42 84 106H49c0 40 14 67 53 68 26 1 43-12 49-29l28 8c-11 28-37 45-77 45C44 4 14-33 15-96c1-61 26-98 85-98zm52 81c6-60-76-77-97-28-3 7-6 17-6 28h103" id="Z"/><path d="M117-194c89-4 53 116 60 194h-32v-121c0-31-8-49-39-48C34-167 62-67 57 0H25l-1-190h30c1 10-1 24 2 32 11-22 29-35 61-36" id="aa"/><path d="M59-47c-2 24 18 29 38 22v24C64 9 27 4 27-40v-127H5v-23h24l9-43h21v43h35v23H59v120" id="ab"/><path d="M135-143c-3-34-86-38-87 0 15 53 115 12 119 90S17 21 10-45l28-5c4 36 97 45 98 0-10-56-113-15-118-90-4-57 82-63 122-42 12 7 21 19 24 35" id="ac"/><g id="c"><use transform="matrix(0.05,0,0,0.05,0,0)" xlink:href="#T"/><use transform="matrix(0.05,0,0,0.05,12,0)" xlink:href="#Y"/><use transform="matrix(0.05,0,0,0.05,21,0)" xlink:href="#Z"/><use transform="matrix(0.05,0,0,0.05,31,0)" xlink:href="#aa"/><use transform="matrix(0.05,0,0,0.05,41,0)" xlink:href="#ab"/><use transform="matrix(0.05,0,0,0.05,46,0)" xlink:href="#ac"/></g><path d="M205 0l-28-72H64L36 0H1l101-248h38L239 0h-34zm-38-99l-47-123c-12 45-31 82-46 123h93" id="ad"/><path d="M33 0v-248h34V0H33" id="ae"/><g id="d"><use transform="matrix(0.05,0,0,0.05,0,0)" xlink:href="#ad"/><use transform="matrix(0.05,0,0,0.05,12,0)" xlink:href="#X"/><use transform="matrix(0.05,0,0,0.05,24,0)" xlink:href="#ae"/></g><path d="M16-82v-28h88v28H16" id="af"/><use transform="matrix(0.05,0,0,0.05,0,0)" xlink:href="#af" id="e"/><path d="M85-194c31 0 48 13 60 33l-1-100h32l1 261h-30c-2-10 0-23-3-31C134-8 116 4 85 4 32 4 16-35 15-94c0-66 23-100 70-100zm9 24c-40 0-46 34-46 75 0 40 6 74 45 74 42 0 51-32 51-76 0-42-9-74-50-73" id="ag"/><g id="f"><use transform="matrix(0.05,0,0,0.05,0,0)" xlink:href="#ad"/><use transform="matrix(0.05,0,0,0.05,12,0)" xlink:href="#ag"/><use transform="matrix(0.05,0,0,0.05,22,0)" xlink:href="#ag"/></g><g id="g"><use transform="matrix(0.05,0,0,0.05,0,0)" xlink:href="#Z"/><use transform="matrix(0.05,0,0,0.05,10,0)" xlink:href="#Y"/><use transform="matrix(0.05,0,0,0.05,19,0)" xlink:href="#Z"/><use transform="matrix(0.05,0,0,0.05,29,0)" xlink:href="#aa"/><use transform="matrix(0.05,0,0,0.05,39,0)" xlink:href="#ab"/><use transform="matrix(0.05,0,0,0.05,44,0)" xlink:href="#ac"/></g><use transform="matrix(0.05,0,0,0.05,0,0)" xlink:href="#af" id="h"/><path d="M30-248c118-7 216 8 213 122C240-48 200 0 122 0H30v-248zM63-27c89 8 146-16 146-99s-60-101-146-95v194" id="ah"/><path d="M24 0v-261h32V0H24" id="ai"/><g id="i"><use transform="matrix(0.05,0,0,0.05,0,0)" xlink:href="#ah"/><use transform="matrix(0.05,0,0,0.05,12.950000000000001,0)" xlink:href="#Z"/><use transform="matrix(0.05,0,0,0.05,22.950000000000003,0)" xlink:href="#ai"/><use transform="matrix(0.05,0,0,0.05,26.900000000000002,0)" xlink:href="#Z"/><use transform="matrix(0.05,0,0,0.05,36.900000000000006,0)" xlink:href="#ab"/><use transform="matrix(0.05,0,0,0.05,41.900000000000006,0)" xlink:href="#Z"/></g><g id="j"><use transform="matrix(0.05,0,0,0.05,0,0)" xlink:href="#Z"/><use transform="matrix(0.05,0,0,0.05,10,0)" xlink:href="#Y"/><use transform="matrix(0.05,0,0,0.05,19,0)" xlink:href="#Z"/><use transform="matrix(0.05,0,0,0.05,29,0)" xlink:href="#aa"/><use transform="matrix(0.05,0,0,0.05,39,0)" xlink:href="#ab"/><use transform="matrix(0.05,0,0,0.05,44,0)" xlink:href="#ac"/></g><g id="k"><use transform="matrix(0.05,0,0,0.05,0,0)" xlink:href="#T"/><use transform="matrix(0.05,0,0,0.05,12,0)" xlink:href="#Y"/><use transform="matrix(0.05,0,0,0.05,21,0)" xlink:href="#Z"/><use transform="matrix(0.05,0,0,0.05,31,0)" xlink:href="#aa"/><use transform="matrix(0.05,0,0,0.05,41,0)" xlink:href="#ab"/></g><path d="M100-194c62-1 85 37 85 99 1 63-27 99-86 99S16-35 15-95c0-66 28-99 85-99zM99-20c44 1 53-31 53-75 0-43-8-75-51-75s-53 32-53 75 10 74 51 75" id="aj"/><path d="M114-163C36-179 61-72 57 0H25l-1-190h30c1 12-1 29 2 39 6-27 23-49 58-41v29" id="ak"/><path d="M141-36C126-15 110 5 73 4 37 3 15-17 15-53c-1-64 63-63 125-63 3-35-9-54-41-54-24 1-41 7-42 31l-33-3c5-37 33-52 76-52 45 0 72 20 72 64v82c-1 20 7 32 28 27v20c-31 9-61-2-59-35zM48-53c0 20 12 33 32 33 41-3 63-29 60-74-43 2-92-5-92 41" id="al"/><path d="M177-190C167-65 218 103 67 71c-23-6-38-20-44-43l32-5c15 47 100 32 89-28v-30C133-14 115 1 83 1 29 1 15-40 15-95c0-56 16-97 71-98 29-1 48 16 59 35 1-10 0-23 2-32h30zM94-22c36 0 50-32 50-73 0-42-14-75-50-75-39 0-46 34-46 75s6 73 46 73" id="am"/><g id="l"><use transform="matrix(0.05,0,0,0.05,0,0)" xlink:href="#U"/><use transform="matrix(0.05,0,0,0.05,12,0)" xlink:href="#ab"/><use transform="matrix(0.05,0,0,0.05,17,0)" xlink:href="#aj"/><use transform="matrix(0.05,0,0,0.05,27,0)" xlink:href="#ak"/><use transform="matrix(0.05,0,0,0.05,32.95,0)" xlink:href="#al"/><use transform="matrix(0.05,0,0,0.05,42.95,0)" xlink:href="#am"/><use transform="matrix(0.05,0,0,0.05,52.95,0)" xlink:href="#Z"/></g><path d="M84 4C-5 8 30-112 23-190h32v120c0 31 7 50 39 49 72-2 45-101 50-169h31l1 190h-30c-1-10 1-25-2-33-11 22-28 36-60 37" id="an"/><path d="M115-194c53 0 69 39 70 98 0 66-23 100-70 100C84 3 66-7 56-30L54 0H23l1-261h32v101c10-23 28-34 59-34zm-8 174c40 0 45-34 45-75 0-40-5-75-45-74-42 0-51 32-51 76 0 43 10 73 51 73" id="ao"/><path d="M96-169c-40 0-48 33-48 73s9 75 48 75c24 0 41-14 43-38l32 2c-6 37-31 61-74 61-59 0-76-41-82-99-10-93 101-131 147-64 4 7 5 14 7 22l-32 3c-4-21-16-35-41-35" id="ap"/><path d="M24-231v-30h32v30H24zM24 0v-190h32V0H24" id="aq"/><path d="M115-194c55 1 70 41 70 98S169 2 115 4C84 4 66-9 55-30l1 105H24l-1-265h31l2 30c10-21 28-34 59-34zm-8 174c40 0 45-34 45-75s-6-73-45-74c-42 0-51 32-51 76 0 43 10 73 51 73" id="ar"/><g id="m"><use transform="matrix(0.05,0,0,0.05,0,0)" xlink:href="#U"/><use transform="matrix(0.05,0,0,0.05,12,0)" xlink:href="#an"/><use transform="matrix(0.05,0,0,0.05,22,0)" xlink:href="#ao"/><use transform="matrix(0.05,0,0,0.05,32,0)" xlink:href="#ac"/><use transform="matrix(0.05,0,0,0.05,41,0)" xlink:href="#ap"/><use transform="matrix(0.05,0,0,0.05,50,0)" xlink:href="#ak"/><use transform="matrix(0.05,0,0,0.05,55.95,0)" xlink:href="#aq"/><use transform="matrix(0.05,0,0,0.05,59.900000000000006,0)" xlink:href="#ar"/><use transform="matrix(0.05,0,0,0.05,69.9,0)" xlink:href="#ab"/><use transform="matrix(0.05,0,0,0.05,74.9,0)" xlink:href="#aq"/><use transform="matrix(0.05,0,0,0.05,78.85000000000001,0)" xlink:href="#aj"/><use transform="matrix(0.05,0,0,0.05,88.85000000000001,0)" xlink:href="#aa"/><use transform="matrix(0.05,0,0,0.05,98.85000000000001,0)" xlink:href="#ac"/></g><g id="n"><use transform="matrix(0.05,0,0,0.05,0,0)" xlink:href="#T"/><use transform="matrix(0.05,0,0,0.05,12,0)" xlink:href="#Y"/><use transform="matrix(0.05,0,0,0.05,21,0)" xlink:href="#Z"/><use transform="matrix(0.05,0,0,0.05,31,0)" xlink:href="#aa"/><use transform="matrix(0.05,0,0,0.05,41,0)" xlink:href="#ab"/></g><path d="M179-190L93 31C79 59 56 82 12 73V49c39 6 53-20 64-50L1-190h34L92-34l54-156h33" id="as"/><g id="o"><use transform="matrix(0.05,0,0,0.05,0,0)" xlink:href="#S"/><use transform="matrix(0.05,0,0,0.05,12.950000000000001,0)" xlink:href="#Z"/><use transform="matrix(0.05,0,0,0.05,22.950000000000003,0)" xlink:href="#ar"/><use transform="matrix(0.05,0,0,0.05,32.95,0)" xlink:href="#aj"/><use transform="matrix(0.05,0,0,0.05,42.95,0)" xlink:href="#ac"/><use transform="matrix(0.05,0,0,0.05,51.95,0)" xlink:href="#aq"/><use transform="matrix(0.05,0,0,0.05,55.900000000000006,0)" xlink:href="#ab"/><use transform="matrix(0.05,0,0,0.05,60.900000000000006,0)" xlink:href="#aj"/><use transform="matrix(0.05,0,0,0.05,70.9,0)" xlink:href="#ak"/><use transform="matrix(0.05,0,0,0.05,76.85000000000001,0)" xlink:href="#as"/></g><path d="M18-100v-36l175-74v27L42-118l151 64v27" id="at"/><path d="M206 0h-36l-40-164L89 0H53L-1-190h32L70-26l43-164h34l41 164 42-164h31" id="au"/><path d="M18-27v-27l151-64-151-65v-27l175 74v36" id="av"/><g id="p"><use transform="matrix(0.05,0,0,0.05,0,0)" xlink:href="#at"/><use transform="matrix(0.05,0,0,0.05,10.5,0)" xlink:href="#at"/><use transform="matrix(0.05,0,0,0.05,21,0)" xlink:href="#au"/><use transform="matrix(0.05,0,0,0.05,33.95,0)" xlink:href="#ak"/><use transform="matrix(0.05,0,0,0.05,39.900000000000006,0)" xlink:href="#aq"/><use transform="matrix(0.05,0,0,0.05,43.85000000000001,0)" xlink:href="#ab"/><use transform="matrix(0.05,0,0,0.05,48.85000000000001,0)" xlink:href="#Z"/><use transform="matrix(0.05,0,0,0.05,58.85,0)" xlink:href="#av"/><use transform="matrix(0.05,0,0,0.05,69.35000000000001,0)" xlink:href="#av"/></g><g id="q"><use transform="matrix(0.05,0,0,0.05,0,0)" xlink:href="#T"/><use transform="matrix(0.05,0,0,0.05,12,0)" xlink:href="#Y"/><use transform="matrix(0.05,0,0,0.05,21,0)" xlink:href="#Z"/><use transform="matrix(0.05,0,0,0.05,31,0)" xlink:href="#aa"/><use transform="matrix(0.05,0,0,0.05,41,0)" xlink:href="#ab"/></g><path d="M140-251c81 0 123 46 123 126C263-53 228-8 163 1c7 30 30 48 69 40v23c-55 16-95-15-103-61C56-3 17-48 17-125c0-80 42-126 123-126zm0 227c63 0 89-41 89-101s-29-99-89-99c-61 0-89 39-89 99S79-25 140-24" id="aw"/><g id="r"><use transform="matrix(0.05,0,0,0.05,0,0)" xlink:href="#aw"/><use transform="matrix(0.05,0,0,0.05,14,0)" xlink:href="#an"/><use transform="matrix(0.05,0,0,0.05,24,0)" xlink:href="#Z"/><use transform="matrix(0.05,0,0,0.05,34,0)" xlink:href="#an"/><use transform="matrix(0.05,0,0,0.05,44,0)" xlink:href="#Z"/></g><path d="M106-169C34-169 62-67 57 0H25v-261h32l-1 103c12-21 28-36 61-36 89 0 53 116 60 194h-32v-121c2-32-8-49-39-48" id="ax"/><g id="s"><use transform="matrix(0.05,0,0,0.05,0,0)" xlink:href="#ah"/><use transform="matrix(0.05,0,0,0.05,12.950000000000001,0)" xlink:href="#aq"/><use transform="matrix(0.05,0,0,0.05,16.900000000000002,0)" xlink:href="#ac"/><use transform="matrix(0.05,0,0,0.05,25.900000000000002,0)" xlink:href="#ar"/><use transform="matrix(0.05,0,0,0.05,35.900000000000006,0)" xlink:href="#al"/><use transform="matrix(0.05,0,0,0.05,45.900000000000006,0)" xlink:href="#ab"/><use transform="matrix(0.05,0,0,0.05,50.900000000000006,0)" xlink:href="#ap"/><use transform="matrix(0.05,0,0,0.05,59.900000000000006,0)" xlink:href="#ax"/><use transform="matrix(0.05,0,0,0.05,69.9,0)" xlink:href="#Z"/><use transform="matrix(0.05,0,0,0.05,79.9,0)" xlink:href="#ak"/></g><g id="t"><use transform="matrix(0.05,0,0,0.05,0,0)" xlink:href="#U"/><use transform="matrix(0.05,0,0,0.05,12,0)" xlink:href="#Z"/><use transform="matrix(0.05,0,0,0.05,22,0)" xlink:href="#ak"/><use transform="matrix(0.05,0,0,0.05,27.950000000000003,0)" xlink:href="#Y"/><use transform="matrix(0.05,0,0,0.05,36.95,0)" xlink:href="#aq"/><use transform="matrix(0.05,0,0,0.05,40.900000000000006,0)" xlink:href="#ap"/><use transform="matrix(0.05,0,0,0.05,49.900000000000006,0)" xlink:href="#Z"/></g><g id="u"><use transform="matrix(0.05,0,0,0.05,0,0)" xlink:href="#X"/><use transform="matrix(0.05,0,0,0.05,12,0)" xlink:href="#ak"/><use transform="matrix(0.05,0,0,0.05,17.95,0)" xlink:href="#aj"/><use transform="matrix(0.05,0,0,0.05,27.950000000000003,0)" xlink:href="#ap"/><use transform="matrix(0.05,0,0,0.05,36.95,0)" xlink:href="#Z"/><use transform="matrix(0.05,0,0,0.05,46.95,0)" xlink:href="#ac"/><use transform="matrix(0.05,0,0,0.05,55.95,0)" xlink:href="#ac"/><use transform="matrix(0.05,0,0,0.05,64.95,0)" xlink:href="#aj"/><use transform="matrix(0.05,0,0,0.05,74.95,0)" xlink:href="#ak"/></g><g id="v"><use transform="matrix(0.05,0,0,0.05,0,0)" xlink:href="#at"/><use transform="matrix(0.05,0,0,0.05,10.5,0)" xlink:href="#at"/><use transform="matrix(0.05,0,0,0.05,21,0)" xlink:href="#ak"/><use transform="matrix(0.05,0,0,0.05,26.950000000000003,0)" xlink:href="#Z"/><use transform="matrix(0.05,0,0,0.05,36.95,0)" xlink:href="#al"/><use transform="matrix(0.05,0,0,0.05,46.95,0)" xlink:href="#ag"/><use transform="matrix(0.05,0,0,0.05,56.95,0)" xlink:href="#av"/><use transform="matrix(0.05,0,0,0.05,67.45,0)" xlink:href="#av"/></g><g id="w"><use transform="matrix(0.05,0,0,0.05,0,0)" xlink:href="#U"/><use transform="matrix(0.05,0,0,0.05,12,0)" xlink:href="#an"/><use transform="matrix(0.05,0,0,0.05,22,0)" xlink:href="#ao"/><use transform="matrix(0.05,0,0,0.05,32,0)" xlink:href="#ac"/><use transform="matrix(0.05,0,0,0.05,41,0)" xlink:href="#ap"/><use transform="matrix(0.05,0,0,0.05,50,0)" xlink:href="#ak"/><use transform="matrix(0.05,0,0,0.05,55.95,0)" xlink:href="#aq"/><use transform="matrix(0.05,0,0,0.05,59.900000000000006,0)" xlink:href="#ar"/><use transform="matrix(0.05,0,0,0.05,69.9,0)" xlink:href="#ab"/><use transform="matrix(0.05,0,0,0.05,74.9,0)" xlink:href="#aq"/><use transform="matrix(0.05,0,0,0.05,78.85000000000001,0)" xlink:href="#aj"/><use transform="matrix(0.05,0,0,0.05,88.85000000000001,0)" xlink:href="#aa"/></g><g id="x"><use transform="matrix(0.05,0,0,0.05,0,0)" xlink:href="#ac"/><use transform="matrix(0.05,0,0,0.05,9,0)" xlink:href="#an"/><use transform="matrix(0.05,0,0,0.05,19,0)" xlink:href="#ao"/><use transform="matrix(0.05,0,0,0.05,29,0)" xlink:href="#ac"/><use transform="matrix(0.05,0,0,0.05,38,0)" xlink:href="#ap"/><use transform="matrix(0.05,0,0,0.05,47,0)" xlink:href="#ak"/><use transform="matrix(0.05,0,0,0.05,52.95,0)" xlink:href="#aq"/><use transform="matrix(0.05,0,0,0.05,56.900000000000006,0)" xlink:href="#ar"/><use transform="matrix(0.05,0,0,0.05,66.9,0)" xlink:href="#ab"/><use transform="matrix(0.05,0,0,0.05,71.9,0)" xlink:href="#aq"/><use transform="matrix(0.05,0,0,0.05,75.85000000000001,0)" xlink:href="#aj"/><use transform="matrix(0.05,0,0,0.05,85.85000000000001,0)" xlink:href="#aa"/><use transform="matrix(0.05,0,0,0.05,95.85000000000001,0)" xlink:href="#ac"/></g><g id="y"><use transform="matrix(0.05,0,0,0.05,0,0)" xlink:href="#S"/><use transform="matrix(0.05,0,0,0.05,12.950000000000001,0)" xlink:href="#Z"/><use transform="matrix(0.05,0,0,0.05,22.950000000000003,0)" xlink:href="#ab"/><use transform="matrix(0.05,0,0,0.05,27.950000000000003,0)" xlink:href="#an"/><use transform="matrix(0.05,0,0,0.05,37.95,0)" xlink:href="#ak"/><use transform="matrix(0.05,0,0,0.05,43.900000000000006,0)" xlink:href="#aa"/></g><g id="z"><use transform="matrix(0.05,0,0,0.05,0,0)" xlink:href="#ac"/><use transform="matrix(0.05,0,0,0.05,9,0)" xlink:href="#an"/><use transform="matrix(0.05,0,0,0.05,19,0)" xlink:href="#ao"/><use transform="matrix(0.05,0,0,0.05,29,0)" xlink:href="#ac"/><use transform="matrix(0.05,0,0,0.05,38,0)" xlink:href="#ap"/><use transform="matrix(0.05,0,0,0.05,47,0)" xlink:href="#ak"/><use transform="matrix(0.05,0,0,0.05,52.95,0)" xlink:href="#aq"/><use transform="matrix(0.05,0,0,0.05,56.900000000000006,0)" xlink:href="#ao"/><use transform="matrix(0.05,0,0,0.05,66.9,0)" xlink:href="#ab"/><use transform="matrix(0.05,0,0,0.05,71.9,0)" xlink:href="#aq"/><use transform="matrix(0.05,0,0,0.05,75.85000000000001,0)" xlink:href="#aj"/><use transform="matrix(0.05,0,0,0.05,85.85000000000001,0)" xlink:href="#aa"/><use transform="matrix(0.05,0,0,0.05,95.85000000000001,0)" xlink:href="#ac"/></g><g id="A"><use transform="matrix(0.05,0,0,0.05,0,0)" xlink:href="#ac"/><use transform="matrix(0.05,0,0,0.05,9,0)" xlink:href="#an"/><use transform="matrix(0.05,0,0,0.05,19,0)" xlink:href="#ao"/><use transform="matrix(0.05,0,0,0.05,29,0)" xlink:href="#ac"/><use transform="matrix(0.05,0,0,0.05,38,0)" xlink:href="#ap"/><use transform="matrix(0.05,0,0,0.05,47,0)" xlink:href="#ak"/><use transform="matrix(0.05,0,0,0.05,52.95,0)" xlink:href="#aq"/><use transform="matrix(0.05,0,0,0.05,56.900000000000006,0)" xlink:href="#ao"/><use transform="matrix(0.05,0,0,0.05,66.9,0)" xlink:href="#ab"/><use transform="matrix(0.05,0,0,0.05,71.9,0)" xlink:href="#aq"/><use transform="matrix(0.05,0,0,0.05,75.85000000000001,0)" xlink:href="#aj"/><use transform="matrix(0.05,0,0,0.05,85.85000000000001,0)" xlink:href="#aa"/><use transform="matrix(0.05,0,0,0.05,95.85000000000001,0)" xlink:href="#ac"/></g><g id="B"><use transform="matrix(0.05,0,0,0.05,0,0)" xlink:href="#U"/><use transform="matrix(0.05,0,0,0.05,12,0)" xlink:href="#an"/><use transform="matrix(0.05,0,0,0.05,22,0)" xlink:href="#ao"/><use transform="matrix(0.05,0,0,0.05,32,0)" xlink:href="#ac"/><use transform="matrix(0.05,0,0,0.05,41,0)" xlink:href="#ap"/><use transform="matrix(0.05,0,0,0.05,50,0)" xlink:href="#ak"/><use transform="matrix(0.05,0,0,0.05,55.95,0)" xlink:href="#aq"/><use transform="matrix(0.05,0,0,0.05,59.900000000000006,0)" xlink:href="#ar"/><use transform="matrix(0.05,0,0,0.05,69.9,0)" xlink:href="#ab"/><use transform="matrix(0.05,0,0,0.05,74.9,0)" xlink:href="#aq"/><use transform="matrix(0.05,0,0,0.05,78.85000000000001,0)" xlink:href="#aj"/><use transform="matrix(0.05,0,0,0.05,88.85000000000001,0)" xlink:href="#aa"/></g><g id="C"><use transform="matrix(0.05,0,0,0.05,0,0)" xlink:href="#at"/><use transform="matrix(0.05,0,0,0.05,10.5,0)" xlink:href="#at"/><use transform="matrix(0.05,0,0,0.05,21,0)" xlink:href="#ak"/><use transform="matrix(0.05,0,0,0.05,26.950000000000003,0)" xlink:href="#Z"/><use transform="matrix(0.05,0,0,0.05,36.95,0)" xlink:href="#al"/><use transform="matrix(0.05,0,0,0.05,46.95,0)" xlink:href="#ag"/></g><path d="M0 4l72-265h28L28 4H0" id="ay"/><use transform="matrix(0.05,0,0,0.05,0,0)" xlink:href="#ay" id="D"/><g id="E"><use transform="matrix(0.05,0,0,0.05,0,0)" xlink:href="#au"/><use transform="matrix(0.05,0,0,0.05,12.950000000000001,0)" xlink:href="#ak"/><use transform="matrix(0.05,0,0,0.05,18.900000000000002,0)" xlink:href="#aq"/><use transform="matrix(0.05,0,0,0.05,22.85,0)" xlink:href="#ab"/><use transform="matrix(0.05,0,0,0.05,27.85,0)" xlink:href="#Z"/><use transform="matrix(0.05,0,0,0.05,37.85,0)" xlink:href="#av"/><use transform="matrix(0.05,0,0,0.05,48.35,0)" xlink:href="#av"/></g><g id="F"><use transform="matrix(0.05,0,0,0.05,0,0)" xlink:href="#U"/><use transform="matrix(0.05,0,0,0.05,12,0)" xlink:href="#Z"/><use transform="matrix(0.05,0,0,0.05,22,0)" xlink:href="#ak"/><use transform="matrix(0.05,0,0,0.05,27.950000000000003,0)" xlink:href="#Y"/><use transform="matrix(0.05,0,0,0.05,36.95,0)" xlink:href="#aq"/><use transform="matrix(0.05,0,0,0.05,40.900000000000006,0)" xlink:href="#ap"/><use transform="matrix(0.05,0,0,0.05,49.900000000000006,0)" xlink:href="#Z"/></g><path d="M101-234c-31-9-42 10-38 44h38v23H63V0H32v-167H5v-23h27c-7-52 17-82 69-68v24" id="az"/><g id="G"><use transform="matrix(0.05,0,0,0.05,0,0)" xlink:href="#U"/><use transform="matrix(0.05,0,0,0.05,12,0)" xlink:href="#ar"/><use transform="matrix(0.05,0,0,0.05,22,0)" xlink:href="#Z"/><use transform="matrix(0.05,0,0,0.05,32,0)" xlink:href="#ap"/><use transform="matrix(0.05,0,0,0.05,41,0)" xlink:href="#aq"/><use transform="matrix(0.05,0,0,0.05,44.95,0)" xlink:href="#az"/><use transform="matrix(0.05,0,0,0.05,49.95,0)" xlink:href="#aq"/><use transform="matrix(0.05,0,0,0.05,53.900000000000006,0)" xlink:href="#ap"/><use transform="matrix(0.05,0,0,0.05,62.900000000000006,0)" xlink:href="#al"/><use transform="matrix(0.05,0,0,0.05,72.9,0)" xlink:href="#ab"/><use transform="matrix(0.05,0,0,0.05,77.9,0)" xlink:href="#aq"/><use transform="matrix(0.05,0,0,0.05,81.85000000000001,0)" xlink:href="#aj"/><use transform="matrix(0.05,0,0,0.05,91.85000000000001,0)" xlink:href="#aa"/></g><g id="H"><use transform="matrix(0.05,0,0,0.05,0,0)" xlink:href="#at"/><use transform="matrix(0.05,0,0,0.05,10.5,0)" xlink:href="#at"/><use transform="matrix(0.05,0,0,0.05,21,0)" xlink:href="#an"/><use transform="matrix(0.05,0,0,0.05,31,0)" xlink:href="#ac"/><use transform="matrix(0.05,0,0,0.05,40,0)" xlink:href="#Z"/><use transform="matrix(0.05,0,0,0.05,50,0)" xlink:href="#av"/><use transform="matrix(0.05,0,0,0.05,60.5,0)" xlink:href="#av"/></g><path d="M175 0L67-191c6 58 2 128 3 191H24v-248h59L193-55c-6-58-2-129-3-193h46V0h-61" id="aA"/><path d="M24 0v-248h195v40H76v63h132v40H76v65h150V0H24" id="aB"/><path d="M275 0h-61l-44-196L126 0H64L0-248h53L97-49l45-199h58l43 199 44-199h52" id="aC"/><path d="M169-182c-1-43-94-46-97-3 18 66 151 10 154 114 3 95-165 93-204 36-6-8-10-19-12-30l50-8c3 46 112 56 116 5-17-69-150-10-154-114-4-87 153-88 188-35 5 8 8 18 10 28" id="aD"/><path d="M76-208v77h127v40H76V0H24v-248h183v40H76" id="aE"/><path d="M24-248c120-7 223 5 221 122C244-46 201 0 124 0H24v-248zM76-40c74 7 117-18 117-86 0-67-45-88-117-82v168" id="aF"/><g id="I"><use transform="matrix(0.06172839506172839,0,0,0.06172839506172839,0,0)" xlink:href="#aA"/><use transform="matrix(0.06172839506172839,0,0,0.06172839506172839,15.987654320987653,0)" xlink:href="#aB"/><use transform="matrix(0.06172839506172839,0,0,0.06172839506172839,30.80246913580247,0)" xlink:href="#aC"/><use transform="matrix(0.06172839506172839,0,0,0.06172839506172839,51.72839506172839,0)" xlink:href="#aD"/><use transform="matrix(0.06172839506172839,0,0,0.06172839506172839,66.5432098765432,0)" xlink:href="#aE"/><use transform="matrix(0.06172839506172839,0,0,0.06172839506172839,80.06172839506172,0)" xlink:href="#aB"/><use transform="matrix(0.06172839506172839,0,0,0.06172839506172839,94.87654320987653,0)" xlink:href="#aB"/><use transform="matrix(0.06172839506172839,0,0,0.06172839506172839,109.69135802469134,0)" xlink:href="#aF"/></g><path d="M147 0H94L2-248h55l64 206c17-72 42-137 63-206h54" id="aG"/><path d="M136-208V0H84v-208H4v-40h212v40h-80" id="aH"/><g id="J"><use transform="matrix(0.06172839506172839,0,0,0.06172839506172839,0,0)" xlink:href="#aB"/><use transform="matrix(0.06172839506172839,0,0,0.06172839506172839,14.814814814814813,0)" xlink:href="#aG"/><use transform="matrix(0.06172839506172839,0,0,0.06172839506172839,29.629629629629626,0)" xlink:href="#aB"/><use transform="matrix(0.06172839506172839,0,0,0.06172839506172839,44.44444444444444,0)" xlink:href="#aA"/><use transform="matrix(0.06172839506172839,0,0,0.06172839506172839,60.432098765432094,0)" xlink:href="#aH"/></g><path d="M24 0v-248h52V0H24" id="aI"/><path d="M24-248c93 1 206-16 204 79-1 75-69 88-152 82V0H24v-248zm52 121c47 0 100 7 100-41 0-47-54-39-100-39v80" id="aJ"/><path d="M238-95c0 69-44 99-111 99C63 4 22-25 22-93v-155h51v151c-1 38 19 59 55 60 90 1 49-130 58-211h52v153" id="aK"/><g id="K"><use transform="matrix(0.06172839506172839,0,0,0.06172839506172839,0,0)" xlink:href="#aI"/><use transform="matrix(0.06172839506172839,0,0,0.06172839506172839,6.172839506172839,0)" xlink:href="#aA"/><use transform="matrix(0.06172839506172839,0,0,0.06172839506172839,22.160493827160494,0)" xlink:href="#aJ"/><use transform="matrix(0.06172839506172839,0,0,0.06172839506172839,36.9753086419753,0)" xlink:href="#aK"/><use transform="matrix(0.06172839506172839,0,0,0.06172839506172839,52.962962962962955,0)" xlink:href="#aH"/></g><path d="M182-130c37 4 62 22 62 59C244 23 116-4 24 0v-248c84 5 203-23 205 63 0 31-19 50-47 55zM76-148c40-3 101 13 101-30 0-44-60-28-101-31v61zm0 110c48-3 116 14 116-37 0-48-69-32-116-35v72" id="aL"/><path d="M67-125c0 53 21 87 73 88 37 1 54-22 65-47l45 17C233-25 199 4 140 4 58 4 20-42 15-125 8-235 124-281 211-232c18 10 29 29 36 50l-46 12c-8-25-30-41-62-41-52 0-71 34-72 86" id="aM"/><path d="M240-174c0 40-23 61-54 70L253 0h-59l-57-94H76V0H24v-248c93 4 217-23 216 74zM76-134c48-2 112 12 112-38 0-48-66-32-112-35v73" id="aN"/><path d="M140-251c80 0 125 45 125 126S219 4 139 4C58 4 15-44 15-125s44-126 125-126zm-1 214c52 0 73-35 73-88 0-50-21-86-72-86-52 0-73 35-73 86s22 88 72 88" id="aO"/><g id="L"><use transform="matrix(0.06172839506172839,0,0,0.06172839506172839,0,0)" xlink:href="#aD"/><use transform="matrix(0.06172839506172839,0,0,0.06172839506172839,14.814814814814813,0)" xlink:href="#aK"/><use transform="matrix(0.06172839506172839,0,0,0.06172839506172839,30.80246913580247,0)" xlink:href="#aL"/><use transform="matrix(0.06172839506172839,0,0,0.06172839506172839,46.79012345679012,0)" xlink:href="#aD"/><use transform="matrix(0.06172839506172839,0,0,0.06172839506172839,61.60493827160494,0)" xlink:href="#aM"/><use transform="matrix(0.06172839506172839,0,0,0.06172839506172839,77.5925925925926,0)" xlink:href="#aN"/><use transform="matrix(0.06172839506172839,0,0,0.06172839506172839,93.58024691358025,0)" xlink:href="#aI"/><use transform="matrix(0.06172839506172839,0,0,0.06172839506172839,99.75308641975309,0)" xlink:href="#aJ"/><use transform="matrix(0.06172839506172839,0,0,0.06172839506172839,114.5679012345679,0)" xlink:href="#aH"/><use transform="matrix(0.06172839506172839,0,0,0.06172839506172839,128.0864197530864,0)" xlink:href="#aI"/><use transform="matrix(0.06172839506172839,0,0,0.06172839506172839,134.25925925925924,0)" xlink:href="#aO"/><use transform="matrix(0.06172839506172839,0,0,0.06172839506172839,151.5432098765432,0)" xlink:href="#aA"/><use transform="matrix(0.06172839506172839,0,0,0.06172839506172839,167.53086419753083,0)" xlink:href="#aD"/></g><g id="M"><use transform="matrix(0.06172839506172839,0,0,0.06172839506172839,0,0)" xlink:href="#aB"/><use transform="matrix(0.06172839506172839,0,0,0.06172839506172839,14.814814814814813,0)" xlink:href="#aG"/><use transform="matrix(0.06172839506172839,0,0,0.06172839506172839,29.629629629629626,0)" xlink:href="#aB"/><use transform="matrix(0.06172839506172839,0,0,0.06172839506172839,44.44444444444444,0)" xlink:href="#aA"/><use transform="matrix(0.06172839506172839,0,0,0.06172839506172839,60.432098765432094,0)" xlink:href="#aH"/></g><g id="N"><use transform="matrix(0.06172839506172839,0,0,0.06172839506172839,0,0)" xlink:href="#aO"/><use transform="matrix(0.06172839506172839,0,0,0.06172839506172839,17.28395061728395,0)" xlink:href="#aK"/><use transform="matrix(0.06172839506172839,0,0,0.06172839506172839,33.2716049382716,0)" xlink:href="#aH"/><use transform="matrix(0.06172839506172839,0,0,0.06172839506172839,46.79012345679012,0)" xlink:href="#aJ"/><use transform="matrix(0.06172839506172839,0,0,0.06172839506172839,61.60493827160494,0)" xlink:href="#aK"/><use transform="matrix(0.06172839506172839,0,0,0.06172839506172839,77.5925925925926,0)" xlink:href="#aH"/></g><g id="O"><use transform="matrix(0.05,0,0,0.05,0,0)" xlink:href="#X"/><use transform="matrix(0.05,0,0,0.05,12,0)" xlink:href="#ak"/><use transform="matrix(0.05,0,0,0.05,17.95,0)" xlink:href="#aj"/><use transform="matrix(0.05,0,0,0.05,27.950000000000003,0)" xlink:href="#ap"/><use transform="matrix(0.05,0,0,0.05,36.95,0)" xlink:href="#Z"/><use transform="matrix(0.05,0,0,0.05,46.95,0)" xlink:href="#ac"/><use transform="matrix(0.05,0,0,0.05,55.95,0)" xlink:href="#ac"/></g><g id="P"><use transform="matrix(0.06172839506172839,0,0,0.06172839506172839,0,0)" xlink:href="#aB"/><use transform="matrix(0.06172839506172839,0,0,0.06172839506172839,14.814814814814813,0)" xlink:href="#aG"/><use transform="matrix(0.06172839506172839,0,0,0.06172839506172839,29.629629629629626,0)" xlink:href="#aB"/><use transform="matrix(0.06172839506172839,0,0,0.06172839506172839,44.44444444444444,0)" xlink:href="#aA"/><use transform="matrix(0.06172839506172839,0,0,0.06172839506172839,60.432098765432094,0)" xlink:href="#aH"/></g><g id="Q"><use transform="matrix(0.06172839506172839,0,0,0.06172839506172839,0,0)" xlink:href="#aJ"/><use transform="matrix(0.06172839506172839,0,0,0.06172839506172839,14.814814814814813,0)" xlink:href="#aN"/><use transform="matrix(0.06172839506172839,0,0,0.06172839506172839,30.80246913580247,0)" xlink:href="#aO"/><use transform="matrix(0.06172839506172839,0,0,0.06172839506172839,48.08641975308642,0)" xlink:href="#aM"/><use transform="matrix(0.06172839506172839,0,0,0.06172839506172839,64.07407407407408,0)" xlink:href="#aB"/><use transform="matrix(0.06172839506172839,0,0,0.06172839506172839,78.88888888888889,0)" xlink:href="#aD"/><use transform="matrix(0.06172839506172839,0,0,0.06172839506172839,93.7037037037037,0)" xlink:href="#aD"/><use transform="matrix(0.06172839506172839,0,0,0.06172839506172839,108.5185185185185,0)" xlink:href="#aO"/><use transform="matrix(0.06172839506172839,0,0,0.06172839506172839,125.80246913580245,0)" xlink:href="#aN"/></g><path d="M199 0l-22-63H83L61 0H9l90-248h61L250 0h-51zm-33-102l-36-108c-10 38-24 72-36 108h72" id="aP"/><g id="R"><use transform="matrix(0.06172839506172839,0,0,0.06172839506172839,0,0)" xlink:href="#aI"/><use transform="matrix(0.06172839506172839,0,0,0.06172839506172839,6.172839506172839,0)" xlink:href="#aA"/><use transform="matrix(0.06172839506172839,0,0,0.06172839506172839,22.160493827160494,0)" xlink:href="#aE"/><use transform="matrix(0.06172839506172839,0,0,0.06172839506172839,35.67901234567901,0)" xlink:href="#aN"/><use transform="matrix(0.06172839506172839,0,0,0.06172839506172839,51.666666666666664,0)" xlink:href="#aP"/><use transform="matrix(0.06172839506172839,0,0,0.06172839506172839,67.65432098765432,0)" xlink:href="#aD"/><use transform="matrix(0.06172839506172839,0,0,0.06172839506172839,82.46913580246913,0)" xlink:href="#aH"/><use transform="matrix(0.06172839506172839,0,0,0.06172839506172839,95.98765432098764,0)" xlink:href="#aN"/><use transform="matrix(0.06172839506172839,0,0,0.06172839506172839,111.9753086419753,0)" xlink:href="#aK"/><use transform="matrix(0.06172839506172839,0,0,0.06172839506172839,127.96296296296296,0)" xlink:href="#aM"/><use transform="matrix(0.06172839506172839,0,0,0.06172839506172839,143.9506172839506,0)" xlink:href="#aH"/><use transform="matrix(0.06172839506172839,0,0,0.06172839506172839,157.4691358024691,0)" xlink:href="#aK"/><use transform="matrix(0.06172839506172839,0,0,0.06172839506172839,173.45679012345676,0)" xlink:href="#aN"/><use transform="matrix(0.06172839506172839,0,0,0.06172839506172839,189.4444444444444,0)" xlink:href="#aB"/></g></defs></g></svg>