<svg xmlns="http://www.w3.org/2000/svg" xmlns:xlink="http://www.w3.org/1999/xlink" xmlns:lucid="lucid" width="1440" height="1220"><g transform="translate(4980 -40)" lucid:page-tab-id="RxSJL4XuptTl"><path d="M-5036.8 0h2582.4v1870.4h-2582.4z" fill="#fff"/><path d="M-4960 287h1400v953h-1400z" fill="#fff"/><path d="M-4946 287h12m8 0h12m8 0h12m8 0h12m8 0h12m8 0h12m8 0h12m8 0h12m8 0h12m8 0h12m8 0h12m8 0h12m8 0h12m8 0h12m8 0h12m8 0h12m8 0h12m8 0h12m8 0h12m8 0h12m8 0h12m8 0h12m8 0h12m8 0h12m8 0h12m8 0h12m8 0h12m8 0h12m8 0h12m8 0h12m8 0h12m8 0h12m8 0h12m8 0h12m8 0h12m8 0h12m8 0h12m8 0h12m8 0h12m8 0h12m8 0h12m8 0h12m8 0h12m8 0h12m8 0h12m8 0h12m8 0h12m8 0h12m8 0h12m8 0h12m8 0h12m8 0h12m8 0h12m8 0h12m8 0h12m8 0h12m8 0h12m8 0h12m8 0h12m8 0h12m8 0h12m8 0h12m8 0h12m8 0h12m8 0h12m8 0h12m8 0h12m8 0h12m8 0h12m8 0h6v5.96m0 7.94v11.9m0 7.95v11.9m0 7.96v11.92m0 7.94v11.9m0 7.95v11.93m0 7.94v11.9m0 7.95v11.92m0 7.94v11.9m0 7.95v11.9m0 7.96v11.9m0 7.94v11.9m0 7.95v11.9m0 7.95v11.9m0 7.95v11.9m0 7.96v11.9m0 7.95v11.92m0 7.94v11.92m0 7.94v11.9m0 7.95v11.92m0 7.93v11.9m0 7.95v11.9m0 7.96v11.9m0 7.95v11.9m0 7.94v11.92m0 7.94v11.9m0 7.95v11.9m0 7.96v11.92m0 7.94v11.9m0 7.95v11.93m0 7.94v11.9m0 7.95v11.92m0 7.94v11.9m0 7.95v11.9m0 7.96V968m0 7.94v11.9m0 7.95v11.9m0 7.95v11.9m0 7.95v11.9m0 7.96v11.9m0 7.95v11.92m0 7.94v11.92m0 7.94v11.9m0 7.95v11.92m0 7.93v11.9m0 7.95v11.9m0 7.96v11.9m0 7.95v11.9m0 7.94v5.96h-6m-8 0h-12m-8 0h-12m-8 0h-12m-8 0h-12m-8 0h-12m-8 0h-12m-8 0h-12m-8 0h-12m-8 0h-12m-8 0h-12m-8 0h-12m-8 0h-12m-8 0h-12m-8 0h-12m-8 0h-12m-8 0h-12m-8 0h-12m-8 0h-12m-8 0h-12m-8 0h-12m-8 0h-12m-8 0h-12m-8 0h-12m-8 0h-12m-8 0h-12m-8 0h-12m-8 0h-12m-8 0h-12m-8 0h-12m-8 0h-12m-8 0h-12m-8 0h-12m-8 0h-12m-8 0h-12m-8 0h-12m-8 0h-12m-8 0h-12m-8 0h-12m-8 0h-12m-8 0h-12m-8 0h-12m-8 0h-12m-8 0h-12m-8 0h-12m-8 0h-12m-8 0h-12m-8 0h-12m-8 0h-12m-8 0h-12m-8 0h-12m-8 0h-12m-8 0h-12m-8 0h-12m-8 0h-12m-8 0h-12m-8 0h-12m-8 0h-12m-8 0h-12m-8 0h-12m-8 0h-12m-8 0h-12m-8 0h-12m-8 0h-12m-8 0h-12m-8 0h-12m-8 0h-12m-8 0h-12m-8 0h-12m-8 0h-12m-8 0h-6v-5.96m0-7.94v-11.9m0-7.95v-11.9m0-7.96v-11.92m0-7.94v-11.9m0-7.95v-11.93m0-7.94v-11.9m0-7.95v-11.92m0-7.94v-11.9m0-7.95v-11.9m0-7.96v-11.9m0-7.94v-11.9m0-7.95v-11.9m0-7.95v-11.9m0-7.95v-11.9m0-7.96v-11.9m0-7.95v-11.92m0-7.94v-11.92m0-7.94v-11.9m0-7.95V856.8m0-7.93v-11.9m0-7.95v-11.9m0-7.96v-11.9m0-7.95v-11.9m0-7.94v-11.92m0-7.94v-11.9m0-7.95v-11.9m0-7.96v-11.92m0-7.94v-11.9m0-7.95v-11.93m0-7.94v-11.9m0-7.95v-11.92m0-7.94v-11.9m0-7.95v-11.9m0-7.96V559m0-7.94v-11.9m0-7.95v-11.9m0-7.95v-11.9m0-7.95v-11.9m0-7.96v-11.9m0-7.95v-11.92m0-7.94v-11.92m0-7.94v-11.9m0-7.95V380.3m0-7.93v-11.9m0-7.95v-11.9m0-7.96v-11.9m0-7.95v-11.9m0-7.94V287h6" stroke="#000" stroke-width="4" fill="none"/><path d="M-3926 360h140v120h-140z" stroke="#000" stroke-width="2" fill="#c1e4f7"/><path d="M-3946 380h40v20h-40zM-3946 440h40v20h-40z" stroke="#000" stroke-width="2" fill="#c1e4f7"/><use xlink:href="#a" transform="matrix(1,0,0,1,-3914,372) translate(28.5 40.8)"/><use xlink:href="#b" transform="matrix(1,0,0,1,-3914,372) translate(41.5 62.4)"/><path d="M-4960 287h160v73h-160z" stroke="#000" stroke-opacity="0" stroke-width="2" fill="#fff" fill-opacity="0"/><use xlink:href="#c" transform="matrix(1,0,0,1,-4955,292.0000000000002) translate(12.1604938271605 35.94444444444444)"/><path d="M-4280 60h140v60h-140z" stroke="#000" stroke-opacity="0" stroke-width="2" fill="#fff" fill-opacity="0"/><use xlink:href="#d" transform="matrix(1,0,0,1,-4275,65) translate(41.34567901234568 17.888888888888886)"/><use xlink:href="#e" transform="matrix(1,0,0,1,-4275,65) translate(41.864197530864196 39.22222222222222)"/><path d="M-4210 190v-10m0-40c11.05 0 20 8.95 20 20s-8.95 20-20 20-20-8.95-20-20 8.95-20 20-20z" stroke="#3aa6dd" stroke-width="4" fill="#fff"/><path d="M-4210.8 190v-10h1.6v10z" fill="none"/><path d="M-3780 371.8h220v96.4h-220z" stroke="#000" stroke-opacity="0" stroke-width="2" fill="#fff" fill-opacity="0"/><use xlink:href="#f" transform="matrix(1,0,0,1,-3775,376.8) translate(0 25.5)"/><use xlink:href="#g" transform="matrix(1,0,0,1,-3775,376.8) translate(41.6 25.5)"/><use xlink:href="#h" transform="matrix(1,0,0,1,-3775,376.8) translate(0 47.1)"/><use xlink:href="#g" transform="matrix(1,0,0,1,-3775,376.8) translate(53.6 47.1)"/><use xlink:href="#i" transform="matrix(1,0,0,1,-3775,376.8) translate(0 68.7)"/><use xlink:href="#j" transform="matrix(1,0,0,1,-3775,376.8) translate(74.9 68.7)"/><path d="M-4616 360h140v120h-140z" stroke="#000" stroke-width="2" fill="#c1e4f7"/><path d="M-4636 380h40v20h-40zM-4636 440h40v20h-40z" stroke="#000" stroke-width="2" fill="#c1e4f7"/><use xlink:href="#k" transform="matrix(1,0,0,1,-4604,372) translate(2.0749999999999957 40.8)"/><use xlink:href="#b" transform="matrix(1,0,0,1,-4604,372) translate(41.5 62.4)"/><path d="M-4468.83 371.8H-4220v96.4h-248.83z" stroke="#000" stroke-opacity="0" stroke-width="2" fill="#fff" fill-opacity="0"/><use xlink:href="#f" transform="matrix(1,0,0,1,-4463.833333333334,376.8) translate(0 25.5)"/><use xlink:href="#l" transform="matrix(1,0,0,1,-4463.833333333334,376.8) translate(41.6 25.5)"/><use xlink:href="#h" transform="matrix(1,0,0,1,-4463.833333333334,376.8) translate(0 47.1)"/><use xlink:href="#l" transform="matrix(1,0,0,1,-4463.833333333334,376.8) translate(53.6 47.1)"/><use xlink:href="#i" transform="matrix(1,0,0,1,-4463.833333333334,376.8) translate(0 68.7)"/><use xlink:href="#m" transform="matrix(1,0,0,1,-4463.833333333334,376.8) translate(74.9 68.7)"/><path d="M-3646 968c0 6.63-26.86 12-60 12s-60-5.37-60-12v-96c0-6.63 26.86-12 60-12s60 5.37 60 12z" stroke="#000" stroke-width="2" fill="#c7e8ac"/><path d="M-3646 872c0 6.63-26.86 12-60 12s-60-5.37-60-12" stroke="#000" stroke-width="2" fill="none"/><use xlink:href="#n" transform="matrix(1,0,0,1,-3761,888.9999999999999) translate(32 35.8)"/><use xlink:href="#o" transform="matrix(1,0,0,1,-3761,888.9999999999999) translate(23.525 57.4)"/><path d="M-3766 610h140v120h-140z" stroke="#000" stroke-width="2" fill="#ffeca9"/><path d="M-3786 630h40v20h-40zM-3786 690h40v20h-40z" stroke="#000" stroke-width="2" fill="#ffeca9"/><use xlink:href="#p" transform="matrix(1,0,0,1,-3754,622.0000000000001) translate(33 40.8)"/><use xlink:href="#q" transform="matrix(1,0,0,1,-3754,622.0000000000001) translate(13.074999999999996 62.4)"/><path d="M-3706 732v108.5" fill="none"/><path d="M-3706 732v2.96m0 3.94v5.92m0 3.95v5.92m0 3.93v5.92m0 3.94v5.9m0 3.96v5.92m0 3.94v5.92m0 3.94V804m0 3.95v5.92m0 3.94v5.93m0 3.95v5.9m0 3.96v2.96" stroke="#000" stroke-width="2" fill="none"/><path d="M-3705 732.03h-2V731h2z"/><path d="M-3706 855.76l-4.64-14.26h9.28z" stroke="#000" stroke-width="2"/><path d="M-3825.33 482v63H-3706v45.5" fill="none"/><path d="M-3825.33 482v2.97m0 3.96v5.95m0 3.96v5.94m0 3.97v5.94m0 3.95v5.94m0 3.96v5.94m0 3.96v5.95m3.36.6h5.95m3.96 0h5.94m3.97 0h5.94m3.95 0h5.95m3.96 0h5.94m3.96 0h5.95m3.97 0h5.94m3.97 0h5.95m3.96 0h5.94m3.97 0h5.93m3.96 0h5.94m3.96 0h5.94m1.06 2.9v5.95m0 3.96v5.95m0 3.96v5.96m0 3.96v5.94m0 3.97v2.97" stroke="#000" stroke-width="2" fill="none"/><path d="M-3824.33 482.03h-2V481h2z"/><path d="M-3706 605.76l-4.64-14.26h9.28z" stroke="#000" stroke-width="2"/><use xlink:href="#r" transform="matrix(1,0,0,1,-3781.0876530867613,519.4000000000001) translate(0 14.4)"/><path d="M-4086 610h140v120h-140z" stroke="#000" stroke-width="2" fill="#ffeca9"/><path d="M-4106 630h40v20h-40zM-4106 690h40v20h-40z" stroke="#000" stroke-width="2" fill="#ffeca9"/><use xlink:href="#n" transform="matrix(1,0,0,1,-4074,622.0000000000001) translate(33 30)"/><use xlink:href="#s" transform="matrix(1,0,0,1,-4074,622.0000000000001) translate(13.074999999999996 51.6)"/><use xlink:href="#t" transform="matrix(1,0,0,1,-4074,622.0000000000001) translate(26.049999999999997 73.2)"/><path d="M-3961.32 860c8.46 0 15.32 26.86 15.32 60s-6.86 60-15.32 60h-122.53c-8.46 0-15.32-26.86-15.32-60s6.86-60 15.32-60z" stroke="#000" stroke-width="2" fill="#c7e8ac"/><path d="M-3961.32 980c-8.46 0-15.3-26.86-15.3-60s6.84-60 15.3-60" stroke="#000" stroke-width="2" fill="none"/><use xlink:href="#u" transform="matrix(1,0,0,1,-4094.166666666666,864.9999999999999) translate(33.5 47.8)"/><use xlink:href="#v" transform="matrix(1,0,0,1,-4094.166666666666,864.9999999999999) translate(29.5 69.4)"/><path d="M-3906.67 482v63H-4026v45.5" fill="none"/><path d="M-3906.67 482v2.97m0 3.96v5.95m0 3.96v5.94m0 3.97v5.94m0 3.95v5.94m0 3.96v5.94m0 3.96v5.95m-3.36.6h-5.95m-3.96 0h-5.94m-3.97 0h-5.94m-3.95 0h-5.95m-3.96 0h-5.94m-3.96 0h-5.95m-3.97 0h-5.94m-3.97 0h-5.95m-3.96 0h-5.94m-3.97 0h-5.93m-3.96 0h-5.94m-3.96 0h-5.94m-1.06 2.9v5.95m0 3.96v5.95m0 3.96v5.96m0 3.96v5.94m0 3.97v2.97" stroke="#000" stroke-width="2" fill="none"/><path d="M-3905.67 482.03h-2V481h2z"/><path d="M-4026 605.76l-4.64-14.26h9.28z" stroke="#000" stroke-width="2"/><use xlink:href="#w" transform="matrix(1,0,0,1,-4022.1083040783797,519.4000000000001) translate(0 14.4)"/><path d="M-4026 732v108.5" fill="none"/><path d="M-4026 732v2.96m0 3.94v5.92m0 3.95v5.92m0 3.93v5.92m0 3.94v5.9m0 3.96v5.92m0 3.94v5.92m0 3.94V804m0 3.95v5.92m0 3.94v5.93m0 3.94v5.92m0 3.94v2.96" stroke="#000" stroke-width="2" fill="none"/><path d="M-4025 732.03h-2V731h2z"/><path d="M-4026 855.76l-4.64-14.26h9.28z" stroke="#000" stroke-width="2"/><use xlink:href="#w" transform="matrix(1,0,0,1,-4113.849999999999,775.4925170068027) translate(0 14.4)"/><path d="M-4086 1080h140v120h-140z" stroke="#000" stroke-width="2" fill="#ffeca9"/><path d="M-4106 1100h40v20h-40zM-4106 1160h40v20h-40z" stroke="#000" stroke-width="2" fill="#ffeca9"/><use xlink:href="#n" transform="matrix(1,0,0,1,-4074,1092) translate(33 30)"/><use xlink:href="#x" transform="matrix(1,0,0,1,-4074,1092) translate(18.574999999999996 51.6)"/><use xlink:href="#t" transform="matrix(1,0,0,1,-4074,1092) translate(26.049999999999997 73.2)"/><path d="M-4026 1078v-78.5" fill="none"/><path d="M-4026 1078v-2.94m0-3.93v-5.9m0-3.9v-5.9m0-3.92v-5.88m0-3.92v-5.9m0-3.92V1026m0-3.93v-5.9m0-3.9v-5.9m0-3.92v-2.95" stroke="#000" stroke-width="2" fill="none"/><path d="M-4025 1079h-2v-1.03h2z"/><path d="M-4026 984.24l4.64 14.26h-9.28z" stroke="#000" stroke-width="2"/><use xlink:href="#r" transform="matrix(1,0,0,1,-4111.95,1025.8666666666668) translate(0 14.4)"/><path d="M-3944 1140h78V700.38h60.5" fill="none"/><path d="M-3944 1140h3m3.98 0h5.98m3.98 0h6m3.97 0h6m3.98 0h5.98m4 0h5.97m4 0h5.97m3.98 0h5.98m4 0h1.24v-4.73m0-4v-5.97m0-4v-5.97m0-3.98v-5.98m0-4v-5.97m0-4v-5.97m0-4v-5.97m0-3.98v-5.98m0-4v-5.97m0-4v-5.97m0-4v-5.97m0-4v-5.98m0-3.98v-5.98m0-4v-5.97m0-4v-5.98m0-4v-5.97m0-3.98v-5.98m0-4v-5.98m0-4v-5.97m0-4v-5.97m0-3.98v-5.98m0-4v-5.97m0-4V916m0-4v-5.97m0-3.97v-5.98m0-4v-5.97m0-4v-5.97m0-3.98v-5.98m0-3.98v-6m0-3.97v-6m0-3.98v-5.98m0-4v-5.97m0-4v-5.97m0-3.98v-5.98m0-4v-5.97m0-4v-5.97m0-4v-5.97m0-3.98v-5.98m0-4v-5.97m0-4v-5.97m0-4v-5.97m0-3.98v-5.98m0-4v-5.97m0-4v-5.97m0-4v-2.28h3.68m4 0h5.97m4 0h5.97m3.98 0h6m3.97 0h5.98m4 0h5.97m4 0h2.98" stroke="#000" stroke-width="2" fill="none"/><path d="M-3943.97 1141h-1.03v-2h1.03z"/><path d="M-3790.24 700.38l-14.26 4.63v-9.26z" stroke="#000" stroke-width="2"/><use xlink:href="#w" transform="matrix(1,0,0,1,-3858,1010.4430236414771) translate(0 14.4)"/><path d="M-4496 1188c0 6.63-26.86 12-60 12s-60-5.37-60-12v-96c0-6.63 26.86-12 60-12s60 5.37 60 12z" stroke="#000" stroke-width="2" fill="#c7e8ac"/><path d="M-4496 1092c0 6.63-26.86 12-60 12s-60-5.37-60-12" stroke="#000" stroke-width="2" fill="none"/><use xlink:href="#y" transform="matrix(1,0,0,1,-4611,1109) translate(5.574999999999996 35.8)"/><use xlink:href="#o" transform="matrix(1,0,0,1,-4611,1109) translate(23.525 57.4)"/><path d="M-4616 840h140v120h-140z" stroke="#000" stroke-width="2" fill="#ffeca9"/><path d="M-4636 860h40v20h-40zM-4636 920h40v20h-40z" stroke="#000" stroke-width="2" fill="#ffeca9"/><use xlink:href="#z" transform="matrix(1,0,0,1,-4604,852) translate(6.574999999999996 40.8)"/><use xlink:href="#q" transform="matrix(1,0,0,1,-4604,852) translate(13.074999999999996 62.4)"/><path d="M-4556 962v98.5" fill="none"/><path d="M-4556 962v2.95m0 3.94v5.9m0 3.94v5.9m0 3.95v5.9m0 3.94v5.9m0 3.95v5.9m0 3.94v5.9m0 3.95v5.9m0 3.94v5.9m0 3.95v5.9m0 3.94v2.96" stroke="#000" stroke-width="2" fill="none"/><path d="M-4555 962.03h-2V961h2z"/><path d="M-4556 1075.76l-4.64-14.26h9.28z" stroke="#000" stroke-width="2"/><path d="M-4088 1140h-193V900h-175.5" fill="none"/><path d="M-4088 1140h-3m-3.98 0h-6m-3.98 0h-5.98m-4 0h-5.98m-4 0h-5.97m-3.98 0h-6m-3.98 0h-5.98m-4 0h-5.98m-4 0h-5.98m-4 0h-5.97m-4 0h-5.98m-4 0h-5.97m-4 0h-5.98m-4 0h-5.97m-4 0h-5.98m-4 0h-5.97m-4 0h-5.98m-4 0h-5.97m-4 0h-5.98m-4 0h-5.97m-.48-3.5v-6m0-4v-5.98m0-4v-5.97m0-4v-5.98m0-4v-5.97m0-4v-5.98m0-4v-5.97m0-4v-5.98m0-4v-5.97m0-4v-5.98m0-4v-5.97m0-4v-5.98m0-4v-5.97m0-4v-5.98m0-4v-5.98m0-4v-5.97m0-4v-5.98m0-4v-5.98m0-4v-5.98m0-4v-5.97m0-4V931m0-4v-5.98m0-4v-5.98m0-4v-5.97m-2.92-1.07h-6m-3.98 0h-5.98m-4 0h-5.98m-4 0h-5.98m-4 0h-5.97m-4 0h-6m-3.98 0h-5.98m-4 0h-5.98m-4 0h-5.97m-4 0h-6m-3.98 0h-5.98m-4 0h-5.98m-4 0h-5.97m-4 0h-6m-3.98 0h-5.98m-4 0h-5.98m-4 0h-5.98m-4 0h-2.98" stroke="#000" stroke-width="2" fill="none"/><path d="M-4087 1141h-1.03v-2h1.03z"/><path d="M-4471.76 900l14.26-4.64v9.28z" stroke="#000" stroke-width="2"/><use xlink:href="#r" transform="matrix(1,0,0,1,-4273.000000000001,1027.1999999999998) translate(0 14.4)"/><path d="M-4210 192v128h-346v37" stroke="#3aa6dd" stroke-width="4" fill="none"/><path d="M-4208 192.05h-4V190h4zM-4554 359h-4v-2.05h4z" fill="#3aa6dd"/><path d="M-4210 192v128h344v37" stroke="#3aa6dd" stroke-width="4" fill="none"/><path d="M-4208 192.05h-4V190h4zM-3864 359h-4v-2.05h4z" fill="#3aa6dd"/><path d="M-4616 610h140v120h-140z" stroke="#000" stroke-width="2" fill="#ffeca9"/><path d="M-4636 630h40v20h-40zM-4636 690h40v20h-40z" stroke="#000" stroke-width="2" fill="#ffeca9"/><use xlink:href="#z" transform="matrix(1,0,0,1,-4604,622.0000000000001) translate(6.574999999999996 40.8)"/><use xlink:href="#A" transform="matrix(1,0,0,1,-4604,622.0000000000001) translate(26.049999999999997 62.4)"/><path d="M-4880 610h140v120h-140z" stroke="#000" stroke-width="2" fill="#ffeca9"/><path d="M-4900 630h40v20h-40zM-4900 690h40v20h-40z" stroke="#000" stroke-width="2" fill="#ffeca9"/><use xlink:href="#z" transform="matrix(1,0,0,1,-4868,622.0000000000001) translate(6.574999999999996 40.8)"/><use xlink:href="#B" transform="matrix(1,0,0,1,-4868,622.0000000000001) translate(5.074999999999996 62.4)"/><path d="M-4556 482v108.5" fill="none"/><path d="M-4556 482v2.96m0 3.94v5.92m0 3.95v5.92m0 3.93v5.92m0 3.94v5.9m0 3.96v5.92m0 3.94v5.92m0 3.95v5.9m0 3.95v5.92m0 3.94v5.93m0 3.95v5.9m0 3.96v2.96" stroke="#000" stroke-width="2" fill="none"/><path d="M-4555 482.03h-2V481h2z"/><path d="M-4556 605.76l-4.64-14.26h9.28z" stroke="#000" stroke-width="2"/><path d="M-4556 732v88.5" fill="none"/><path d="M-4556 732v2.95m0 3.93v5.9m0 3.94v5.9m0 3.93v5.9m0 3.93v5.9m0 3.94v5.9m0 3.93v5.9m0 3.93v5.9m0 3.94v5.9m0 3.93v2.95" stroke="#000" stroke-width="2" fill="none"/><path d="M-4555 732.03h-2V731h2z"/><path d="M-4556 835.76l-4.64-14.26h9.28z" stroke="#000" stroke-width="2"/><g><use xlink:href="#C" transform="matrix(1,0,0,1,-4548,774.2) translate(0 14.4)"/><use xlink:href="#D" transform="matrix(1,0,0,1,-4548,774.2) translate(61.95 14.4)"/><use xlink:href="#E" transform="matrix(1,0,0,1,-4548,774.2) translate(71.95 14.4)"/></g><path d="M-4618 670h-102.5" fill="none"/><path d="M-4618 670h-3.07m-4.1 0h-6.15m-4.1 0h-6.15m-4.1 0h-6.15m-4.1 0h-6.15m-4.1 0h-6.15m-4.1 0h-6.15m-4.1 0h-6.15m-4.1 0h-6.15m-4.1 0h-6.15m-4.1 0h-3.08" stroke="#000" stroke-width="2" fill="none"/><path d="M-4617 671h-1.03v-2h1.03z"/><path d="M-4735.76 670l14.26-4.64v9.28z" stroke="#000" stroke-width="2"/><g><use xlink:href="#F" transform="matrix(1,0,0,1,-4713.5,644.4000000000001) translate(0 14.4)"/></g><path d="M-4350 610h140v120h-140z" stroke="#000" stroke-width="2" fill="#ffeca9"/><path d="M-4370 630h40v20h-40zM-4370 690h40v20h-40z" stroke="#000" stroke-width="2" fill="#ffeca9"/><g><use xlink:href="#p" transform="matrix(1,0,0,1,-4338,622.0000000000001) translate(33 40.8)"/><use xlink:href="#B" transform="matrix(1,0,0,1,-4338,622.0000000000001) translate(5.074999999999996 62.4)"/></g><path d="M-4088 670h-102.5" fill="none"/><path d="M-4088 670h-3.07m-4.1 0h-6.15m-4.1 0h-6.15m-4.1 0h-6.15m-4.1 0h-6.15m-4.1 0h-6.15m-4.1 0h-6.15m-4.1 0h-6.15m-4.1 0h-6.15m-4.1 0h-6.15m-4.1 0h-3.08" stroke="#000" stroke-width="2" fill="none"/><path d="M-4087 671h-1.03v-2h1.03z"/><path d="M-4205.76 670l14.26-4.64v9.28z" stroke="#000" stroke-width="2"/><g><use xlink:href="#F" transform="matrix(1,0,0,1,-4183.5,644.4000000000001) translate(0 14.4)"/></g><defs><path d="M30 0v-248h187v28H63v79h144v27H63v87h162V0H30" id="G"/><path d="M108 0H70L1-190h34L89-25l56-165h34" id="H"/><path d="M100-194c63 0 86 42 84 106H49c0 40 14 67 53 68 26 1 43-12 49-29l28 8c-11 28-37 45-77 45C44 4 14-33 15-96c1-61 26-98 85-98zm52 81c6-60-76-77-97-28-3 7-6 17-6 28h103" id="I"/><path d="M117-194c89-4 53 116 60 194h-32v-121c0-31-8-49-39-48C34-167 62-67 57 0H25l-1-190h30c1 10-1 24 2 32 11-22 29-35 61-36" id="J"/><path d="M59-47c-2 24 18 29 38 22v24C64 9 27 4 27-40v-127H5v-23h24l9-43h21v43h35v23H59v120" id="K"/><path d="M135-143c-3-34-86-38-87 0 15 53 115 12 119 90S17 21 10-45l28-5c4 36 97 45 98 0-10-56-113-15-118-90-4-57 82-63 122-42 12 7 21 19 24 35" id="L"/><g id="a"><use transform="matrix(0.05,0,0,0.05,0,0)" xlink:href="#G"/><use transform="matrix(0.05,0,0,0.05,12,0)" xlink:href="#H"/><use transform="matrix(0.05,0,0,0.05,21,0)" xlink:href="#I"/><use transform="matrix(0.05,0,0,0.05,31,0)" xlink:href="#J"/><use transform="matrix(0.05,0,0,0.05,41,0)" xlink:href="#K"/><use transform="matrix(0.05,0,0,0.05,46,0)" xlink:href="#L"/></g><path d="M205 0l-28-72H64L36 0H1l101-248h38L239 0h-34zm-38-99l-47-123c-12 45-31 82-46 123h93" id="M"/><path d="M30-248c87 1 191-15 191 75 0 78-77 80-158 76V0H30v-248zm33 125c57 0 124 11 124-50 0-59-68-47-124-48v98" id="N"/><path d="M33 0v-248h34V0H33" id="O"/><g id="b"><use transform="matrix(0.05,0,0,0.05,0,0)" xlink:href="#M"/><use transform="matrix(0.05,0,0,0.05,12,0)" xlink:href="#N"/><use transform="matrix(0.05,0,0,0.05,24,0)" xlink:href="#O"/></g><path d="M175 0L67-191c6 58 2 128 3 191H24v-248h59L193-55c-6-58-2-129-3-193h46V0h-61" id="P"/><path d="M24 0v-248h195v40H76v63h132v40H76v65h150V0H24" id="Q"/><path d="M275 0h-61l-44-196L126 0H64L0-248h53L97-49l45-199h58l43 199 44-199h52" id="R"/><path d="M169-182c-1-43-94-46-97-3 18 66 151 10 154 114 3 95-165 93-204 36-6-8-10-19-12-30l50-8c3 46 112 56 116 5-17-69-150-10-154-114-4-87 153-88 188-35 5 8 8 18 10 28" id="S"/><path d="M76-208v77h127v40H76V0H24v-248h183v40H76" id="T"/><path d="M24-248c120-7 223 5 221 122C244-46 201 0 124 0H24v-248zM76-40c74 7 117-18 117-86 0-67-45-88-117-82v168" id="U"/><g id="c"><use transform="matrix(0.06172839506172839,0,0,0.06172839506172839,0,0)" xlink:href="#P"/><use transform="matrix(0.06172839506172839,0,0,0.06172839506172839,15.987654320987653,0)" xlink:href="#Q"/><use transform="matrix(0.06172839506172839,0,0,0.06172839506172839,30.80246913580247,0)" xlink:href="#R"/><use transform="matrix(0.06172839506172839,0,0,0.06172839506172839,51.72839506172839,0)" xlink:href="#S"/><use transform="matrix(0.06172839506172839,0,0,0.06172839506172839,66.5432098765432,0)" xlink:href="#T"/><use transform="matrix(0.06172839506172839,0,0,0.06172839506172839,80.06172839506172,0)" xlink:href="#Q"/><use transform="matrix(0.06172839506172839,0,0,0.06172839506172839,94.87654320987653,0)" xlink:href="#Q"/><use transform="matrix(0.06172839506172839,0,0,0.06172839506172839,109.69135802469134,0)" xlink:href="#U"/></g><path d="M233-177c-1 41-23 64-60 70L243 0h-38l-65-103H63V0H30v-248c88 3 205-21 203 71zM63-129c60-2 137 13 137-47 0-61-80-42-137-45v92" id="V"/><path d="M185-189c-5-48-123-54-124 2 14 75 158 14 163 119 3 78-121 87-175 55-17-10-28-26-33-46l33-7c5 56 141 63 141-1 0-78-155-14-162-118-5-82 145-84 179-34 5 7 8 16 11 25" id="W"/><path d="M127-220V0H93v-220H8v-28h204v28h-85" id="X"/><g id="d"><use transform="matrix(0.04938271604938272,0,0,0.04938271604938272,0,0)" xlink:href="#V"/><use transform="matrix(0.04938271604938272,0,0,0.04938271604938272,12.790123456790125,0)" xlink:href="#G"/><use transform="matrix(0.04938271604938272,0,0,0.04938271604938272,24.641975308641978,0)" xlink:href="#W"/><use transform="matrix(0.04938271604938272,0,0,0.04938271604938272,36.49382716049383,0)" xlink:href="#X"/></g><path d="M197 0v-115H63V0H30v-248h33v105h134v-105h34V0h-34" id="Y"/><g id="e"><use transform="matrix(0.04938271604938272,0,0,0.04938271604938272,0,0)" xlink:href="#Y"/><use transform="matrix(0.04938271604938272,0,0,0.04938271604938272,12.790123456790125,0)" xlink:href="#X"/><use transform="matrix(0.04938271604938272,0,0,0.04938271604938272,23.60493827160494,0)" xlink:href="#X"/><use transform="matrix(0.04938271604938272,0,0,0.04938271604938272,34.41975308641975,0)" xlink:href="#N"/></g><path d="M143 4C61 4 22-44 18-125c-5-107 100-154 193-111 17 8 29 25 37 43l-32 9c-13-25-37-40-76-40-61 0-88 39-88 99 0 61 29 100 91 101 35 0 62-11 79-27v-45h-74v-28h105v86C228-13 192 4 143 4" id="Z"/><g id="f"><use transform="matrix(0.05,0,0,0.05,0,0)" xlink:href="#Z"/><use transform="matrix(0.05,0,0,0.05,14,0)" xlink:href="#G"/><use transform="matrix(0.05,0,0,0.05,26,0)" xlink:href="#X"/></g><path d="M0 4l72-265h28L28 4H0" id="aa"/><g id="g"><use transform="matrix(0.05,0,0,0.05,0,0)" xlink:href="#aa"/><use transform="matrix(0.05,0,0,0.05,5,0)" xlink:href="#I"/><use transform="matrix(0.05,0,0,0.05,15,0)" xlink:href="#H"/><use transform="matrix(0.05,0,0,0.05,24,0)" xlink:href="#I"/><use transform="matrix(0.05,0,0,0.05,34,0)" xlink:href="#J"/><use transform="matrix(0.05,0,0,0.05,44,0)" xlink:href="#K"/><use transform="matrix(0.05,0,0,0.05,49,0)" xlink:href="#L"/><use transform="matrix(0.05,0,0,0.05,58,0)" xlink:href="#aa"/></g><path d="M140-251c81 0 123 46 123 126C263-46 219 4 140 4 59 4 17-45 17-125s42-126 123-126zm0 227c63 0 89-41 89-101s-29-99-89-99c-61 0-89 39-89 99S79-25 140-24" id="ab"/><g id="h"><use transform="matrix(0.05,0,0,0.05,0,0)" xlink:href="#N"/><use transform="matrix(0.05,0,0,0.05,12,0)" xlink:href="#ab"/><use transform="matrix(0.05,0,0,0.05,26,0)" xlink:href="#W"/><use transform="matrix(0.05,0,0,0.05,38,0)" xlink:href="#X"/></g><path d="M30-248c118-7 216 8 213 122C240-48 200 0 122 0H30v-248zM63-27c89 8 146-16 146-99s-60-101-146-95v194" id="ac"/><path d="M30 0v-248h33v221h125V0H30" id="ad"/><g id="i"><use transform="matrix(0.05,0,0,0.05,0,0)" xlink:href="#ac"/><use transform="matrix(0.05,0,0,0.05,12.950000000000001,0)" xlink:href="#G"/><use transform="matrix(0.05,0,0,0.05,24.950000000000003,0)" xlink:href="#ad"/><use transform="matrix(0.05,0,0,0.05,34.95,0)" xlink:href="#G"/><use transform="matrix(0.05,0,0,0.05,46.95,0)" xlink:href="#X"/><use transform="matrix(0.05,0,0,0.05,57.900000000000006,0)" xlink:href="#G"/></g><g id="j"><use transform="matrix(0.05,0,0,0.05,0,0)" xlink:href="#aa"/><use transform="matrix(0.05,0,0,0.05,5,0)" xlink:href="#I"/><use transform="matrix(0.05,0,0,0.05,15,0)" xlink:href="#H"/><use transform="matrix(0.05,0,0,0.05,24,0)" xlink:href="#I"/><use transform="matrix(0.05,0,0,0.05,34,0)" xlink:href="#J"/><use transform="matrix(0.05,0,0,0.05,44,0)" xlink:href="#K"/><use transform="matrix(0.05,0,0,0.05,49,0)" xlink:href="#L"/><use transform="matrix(0.05,0,0,0.05,58,0)" xlink:href="#aa"/></g><path d="M84 4C-5 8 30-112 23-190h32v120c0 31 7 50 39 49 72-2 45-101 50-169h31l1 190h-30c-1-10 1-25-2-33-11 22-28 36-60 37" id="ae"/><path d="M115-194c53 0 69 39 70 98 0 66-23 100-70 100C84 3 66-7 56-30L54 0H23l1-261h32v101c10-23 28-34 59-34zm-8 174c40 0 45-34 45-75 0-40-5-75-45-74-42 0-51 32-51 76 0 43 10 73 51 73" id="af"/><path d="M96-169c-40 0-48 33-48 73s9 75 48 75c24 0 41-14 43-38l32 2c-6 37-31 61-74 61-59 0-76-41-82-99-10-93 101-131 147-64 4 7 5 14 7 22l-32 3c-4-21-16-35-41-35" id="ag"/><path d="M114-163C36-179 61-72 57 0H25l-1-190h30c1 12-1 29 2 39 6-27 23-49 58-41v29" id="ah"/><path d="M24-231v-30h32v30H24zM24 0v-190h32V0H24" id="ai"/><path d="M115-194c55 1 70 41 70 98S169 2 115 4C84 4 66-9 55-30l1 105H24l-1-265h31l2 30c10-21 28-34 59-34zm-8 174c40 0 45-34 45-75s-6-73-45-74c-42 0-51 32-51 76 0 43 10 73 51 73" id="aj"/><path d="M100-194c62-1 85 37 85 99 1 63-27 99-86 99S16-35 15-95c0-66 28-99 85-99zM99-20c44 1 53-31 53-75 0-43-8-75-51-75s-53 32-53 75 10 74 51 75" id="ak"/><g id="k"><use transform="matrix(0.05,0,0,0.05,0,0)" xlink:href="#W"/><use transform="matrix(0.05,0,0,0.05,12,0)" xlink:href="#ae"/><use transform="matrix(0.05,0,0,0.05,22,0)" xlink:href="#af"/><use transform="matrix(0.05,0,0,0.05,32,0)" xlink:href="#L"/><use transform="matrix(0.05,0,0,0.05,41,0)" xlink:href="#ag"/><use transform="matrix(0.05,0,0,0.05,50,0)" xlink:href="#ah"/><use transform="matrix(0.05,0,0,0.05,55.95,0)" xlink:href="#ai"/><use transform="matrix(0.05,0,0,0.05,59.900000000000006,0)" xlink:href="#aj"/><use transform="matrix(0.05,0,0,0.05,69.9,0)" xlink:href="#K"/><use transform="matrix(0.05,0,0,0.05,74.9,0)" xlink:href="#ai"/><use transform="matrix(0.05,0,0,0.05,78.85000000000001,0)" xlink:href="#ak"/><use transform="matrix(0.05,0,0,0.05,88.85000000000001,0)" xlink:href="#J"/><use transform="matrix(0.05,0,0,0.05,98.85000000000001,0)" xlink:href="#L"/></g><g id="l"><use transform="matrix(0.05,0,0,0.05,0,0)" xlink:href="#aa"/><use transform="matrix(0.05,0,0,0.05,5,0)" xlink:href="#L"/><use transform="matrix(0.05,0,0,0.05,14,0)" xlink:href="#ae"/><use transform="matrix(0.05,0,0,0.05,24,0)" xlink:href="#af"/><use transform="matrix(0.05,0,0,0.05,34,0)" xlink:href="#L"/><use transform="matrix(0.05,0,0,0.05,43,0)" xlink:href="#ag"/><use transform="matrix(0.05,0,0,0.05,52,0)" xlink:href="#ah"/><use transform="matrix(0.05,0,0,0.05,57.95,0)" xlink:href="#ai"/><use transform="matrix(0.05,0,0,0.05,61.900000000000006,0)" xlink:href="#aj"/><use transform="matrix(0.05,0,0,0.05,71.9,0)" xlink:href="#K"/><use transform="matrix(0.05,0,0,0.05,76.9,0)" xlink:href="#ai"/><use transform="matrix(0.05,0,0,0.05,80.85000000000001,0)" xlink:href="#ak"/><use transform="matrix(0.05,0,0,0.05,90.85000000000001,0)" xlink:href="#J"/><use transform="matrix(0.05,0,0,0.05,100.85000000000001,0)" xlink:href="#L"/><use transform="matrix(0.05,0,0,0.05,109.85000000000001,0)" xlink:href="#aa"/></g><path d="M39-94c74 12-11 154 75 146v23c-44 4-70-10-70-52C44-23 55-84 6-82v-22c81 4-7-162 84-157h24v23c-82-15-2 131-75 144" id="al"/><path d="M85-194c31 0 48 13 60 33l-1-100h32l1 261h-30c-2-10 0-23-3-31C134-8 116 4 85 4 32 4 16-35 15-94c0-66 23-100 70-100zm9 24c-40 0-46 34-46 75 0 40 6 74 45 74 42 0 51-32 51-76 0-42-9-74-50-73" id="am"/><path d="M76-40C78 24 84 88 6 75V52C86 64 9-79 80-94c-40-6-34-59-34-106 1-29-11-41-40-38v-23c44-4 70 10 70 52 0 47-12 108 38 105v22c-26 1-39 14-38 42" id="an"/><g id="m"><use transform="matrix(0.05,0,0,0.05,0,0)" xlink:href="#aa"/><use transform="matrix(0.05,0,0,0.05,5,0)" xlink:href="#L"/><use transform="matrix(0.05,0,0,0.05,14,0)" xlink:href="#ae"/><use transform="matrix(0.05,0,0,0.05,24,0)" xlink:href="#af"/><use transform="matrix(0.05,0,0,0.05,34,0)" xlink:href="#L"/><use transform="matrix(0.05,0,0,0.05,43,0)" xlink:href="#ag"/><use transform="matrix(0.05,0,0,0.05,52,0)" xlink:href="#ah"/><use transform="matrix(0.05,0,0,0.05,57.95,0)" xlink:href="#ai"/><use transform="matrix(0.05,0,0,0.05,61.900000000000006,0)" xlink:href="#aj"/><use transform="matrix(0.05,0,0,0.05,71.9,0)" xlink:href="#K"/><use transform="matrix(0.05,0,0,0.05,76.9,0)" xlink:href="#ai"/><use transform="matrix(0.05,0,0,0.05,80.85000000000001,0)" xlink:href="#ak"/><use transform="matrix(0.05,0,0,0.05,90.85000000000001,0)" xlink:href="#J"/><use transform="matrix(0.05,0,0,0.05,100.85000000000001,0)" xlink:href="#L"/><use transform="matrix(0.05,0,0,0.05,109.85000000000001,0)" xlink:href="#aa"/><use transform="matrix(0.05,0,0,0.05,114.85000000000001,0)" xlink:href="#al"/><use transform="matrix(0.05,0,0,0.05,120.85000000000001,0)" xlink:href="#ai"/><use transform="matrix(0.05,0,0,0.05,124.80000000000001,0)" xlink:href="#am"/><use transform="matrix(0.05,0,0,0.05,134.8,0)" xlink:href="#an"/><use transform="matrix(0.05,0,0,0.05,140.8,0)" xlink:href="#aa"/></g><g id="n"><use transform="matrix(0.05,0,0,0.05,0,0)" xlink:href="#G"/><use transform="matrix(0.05,0,0,0.05,12,0)" xlink:href="#H"/><use transform="matrix(0.05,0,0,0.05,21,0)" xlink:href="#I"/><use transform="matrix(0.05,0,0,0.05,31,0)" xlink:href="#J"/><use transform="matrix(0.05,0,0,0.05,41,0)" xlink:href="#K"/></g><path d="M141-36C126-15 110 5 73 4 37 3 15-17 15-53c-1-64 63-63 125-63 3-35-9-54-41-54-24 1-41 7-42 31l-33-3c5-37 33-52 76-52 45 0 72 20 72 64v82c-1 20 7 32 28 27v20c-31 9-61-2-59-35zM48-53c0 20 12 33 32 33 41-3 63-29 60-74-43 2-92-5-92 41" id="ao"/><path d="M177-190C167-65 218 103 67 71c-23-6-38-20-44-43l32-5c15 47 100 32 89-28v-30C133-14 115 1 83 1 29 1 15-40 15-95c0-56 16-97 71-98 29-1 48 16 59 35 1-10 0-23 2-32h30zM94-22c36 0 50-32 50-73 0-42-14-75-50-75-39 0-46 34-46 75s6 73 46 73" id="ap"/><g id="o"><use transform="matrix(0.05,0,0,0.05,0,0)" xlink:href="#W"/><use transform="matrix(0.05,0,0,0.05,12,0)" xlink:href="#K"/><use transform="matrix(0.05,0,0,0.05,17,0)" xlink:href="#ak"/><use transform="matrix(0.05,0,0,0.05,27,0)" xlink:href="#ah"/><use transform="matrix(0.05,0,0,0.05,32.95,0)" xlink:href="#ao"/><use transform="matrix(0.05,0,0,0.05,42.95,0)" xlink:href="#ap"/><use transform="matrix(0.05,0,0,0.05,52.95,0)" xlink:href="#I"/></g><g id="p"><use transform="matrix(0.05,0,0,0.05,0,0)" xlink:href="#G"/><use transform="matrix(0.05,0,0,0.05,12,0)" xlink:href="#H"/><use transform="matrix(0.05,0,0,0.05,21,0)" xlink:href="#I"/><use transform="matrix(0.05,0,0,0.05,31,0)" xlink:href="#J"/><use transform="matrix(0.05,0,0,0.05,41,0)" xlink:href="#K"/></g><path d="M179-190L93 31C79 59 56 82 12 73V49c39 6 53-20 64-50L1-190h34L92-34l54-156h33" id="aq"/><g id="q"><use transform="matrix(0.05,0,0,0.05,0,0)" xlink:href="#V"/><use transform="matrix(0.05,0,0,0.05,12.950000000000001,0)" xlink:href="#I"/><use transform="matrix(0.05,0,0,0.05,22.950000000000003,0)" xlink:href="#aj"/><use transform="matrix(0.05,0,0,0.05,32.95,0)" xlink:href="#ak"/><use transform="matrix(0.05,0,0,0.05,42.95,0)" xlink:href="#L"/><use transform="matrix(0.05,0,0,0.05,51.95,0)" xlink:href="#ai"/><use transform="matrix(0.05,0,0,0.05,55.900000000000006,0)" xlink:href="#K"/><use transform="matrix(0.05,0,0,0.05,60.900000000000006,0)" xlink:href="#ak"/><use transform="matrix(0.05,0,0,0.05,70.9,0)" xlink:href="#ah"/><use transform="matrix(0.05,0,0,0.05,76.85000000000001,0)" xlink:href="#aq"/></g><path d="M18-100v-36l175-74v27L42-118l151 64v27" id="ar"/><path d="M18-27v-27l151-64-151-65v-27l175 74v36" id="as"/><g id="r"><use transform="matrix(0.05,0,0,0.05,0,0)" xlink:href="#ar"/><use transform="matrix(0.05,0,0,0.05,10.5,0)" xlink:href="#ar"/><use transform="matrix(0.05,0,0,0.05,21,0)" xlink:href="#ah"/><use transform="matrix(0.05,0,0,0.05,26.950000000000003,0)" xlink:href="#I"/><use transform="matrix(0.05,0,0,0.05,36.95,0)" xlink:href="#ao"/><use transform="matrix(0.05,0,0,0.05,46.95,0)" xlink:href="#am"/><use transform="matrix(0.05,0,0,0.05,56.95,0)" xlink:href="#as"/><use transform="matrix(0.05,0,0,0.05,67.45,0)" xlink:href="#as"/></g><path d="M106-169C34-169 62-67 57 0H25v-261h32l-1 103c12-21 28-36 61-36 89 0 53 116 60 194h-32v-121c2-32-8-49-39-48" id="at"/><g id="s"><use transform="matrix(0.05,0,0,0.05,0,0)" xlink:href="#ac"/><use transform="matrix(0.05,0,0,0.05,12.950000000000001,0)" xlink:href="#ai"/><use transform="matrix(0.05,0,0,0.05,16.900000000000002,0)" xlink:href="#L"/><use transform="matrix(0.05,0,0,0.05,25.900000000000002,0)" xlink:href="#aj"/><use transform="matrix(0.05,0,0,0.05,35.900000000000006,0)" xlink:href="#ao"/><use transform="matrix(0.05,0,0,0.05,45.900000000000006,0)" xlink:href="#K"/><use transform="matrix(0.05,0,0,0.05,50.900000000000006,0)" xlink:href="#ag"/><use transform="matrix(0.05,0,0,0.05,59.900000000000006,0)" xlink:href="#at"/><use transform="matrix(0.05,0,0,0.05,69.9,0)" xlink:href="#I"/><use transform="matrix(0.05,0,0,0.05,79.9,0)" xlink:href="#ah"/></g><g id="t"><use transform="matrix(0.05,0,0,0.05,0,0)" xlink:href="#W"/><use transform="matrix(0.05,0,0,0.05,12,0)" xlink:href="#I"/><use transform="matrix(0.05,0,0,0.05,22,0)" xlink:href="#ah"/><use transform="matrix(0.05,0,0,0.05,27.950000000000003,0)" xlink:href="#H"/><use transform="matrix(0.05,0,0,0.05,36.95,0)" xlink:href="#ai"/><use transform="matrix(0.05,0,0,0.05,40.900000000000006,0)" xlink:href="#ag"/><use transform="matrix(0.05,0,0,0.05,49.900000000000006,0)" xlink:href="#I"/></g><g id="u"><use transform="matrix(0.05,0,0,0.05,0,0)" xlink:href="#G"/><use transform="matrix(0.05,0,0,0.05,12,0)" xlink:href="#H"/><use transform="matrix(0.05,0,0,0.05,21,0)" xlink:href="#I"/><use transform="matrix(0.05,0,0,0.05,31,0)" xlink:href="#J"/><use transform="matrix(0.05,0,0,0.05,41,0)" xlink:href="#K"/></g><path d="M140-251c81 0 123 46 123 126C263-53 228-8 163 1c7 30 30 48 69 40v23c-55 16-95-15-103-61C56-3 17-48 17-125c0-80 42-126 123-126zm0 227c63 0 89-41 89-101s-29-99-89-99c-61 0-89 39-89 99S79-25 140-24" id="au"/><g id="v"><use transform="matrix(0.05,0,0,0.05,0,0)" xlink:href="#au"/><use transform="matrix(0.05,0,0,0.05,14,0)" xlink:href="#ae"/><use transform="matrix(0.05,0,0,0.05,24,0)" xlink:href="#I"/><use transform="matrix(0.05,0,0,0.05,34,0)" xlink:href="#ae"/><use transform="matrix(0.05,0,0,0.05,44,0)" xlink:href="#I"/></g><path d="M206 0h-36l-40-164L89 0H53L-1-190h32L70-26l43-164h34l41 164 42-164h31" id="av"/><g id="w"><use transform="matrix(0.05,0,0,0.05,0,0)" xlink:href="#ar"/><use transform="matrix(0.05,0,0,0.05,10.5,0)" xlink:href="#ar"/><use transform="matrix(0.05,0,0,0.05,21,0)" xlink:href="#av"/><use transform="matrix(0.05,0,0,0.05,33.95,0)" xlink:href="#ah"/><use transform="matrix(0.05,0,0,0.05,39.900000000000006,0)" xlink:href="#ai"/><use transform="matrix(0.05,0,0,0.05,43.85000000000001,0)" xlink:href="#K"/><use transform="matrix(0.05,0,0,0.05,48.85000000000001,0)" xlink:href="#I"/><use transform="matrix(0.05,0,0,0.05,58.85,0)" xlink:href="#as"/><use transform="matrix(0.05,0,0,0.05,69.35000000000001,0)" xlink:href="#as"/></g><path d="M24 0v-261h32V0H24" id="aw"/><g id="x"><use transform="matrix(0.05,0,0,0.05,0,0)" xlink:href="#N"/><use transform="matrix(0.05,0,0,0.05,12,0)" xlink:href="#ae"/><use transform="matrix(0.05,0,0,0.05,22,0)" xlink:href="#af"/><use transform="matrix(0.05,0,0,0.05,32,0)" xlink:href="#aw"/><use transform="matrix(0.05,0,0,0.05,35.95,0)" xlink:href="#ai"/><use transform="matrix(0.05,0,0,0.05,39.900000000000006,0)" xlink:href="#L"/><use transform="matrix(0.05,0,0,0.05,48.900000000000006,0)" xlink:href="#at"/><use transform="matrix(0.05,0,0,0.05,58.900000000000006,0)" xlink:href="#I"/><use transform="matrix(0.05,0,0,0.05,68.9,0)" xlink:href="#ah"/></g><g id="y"><use transform="matrix(0.05,0,0,0.05,0,0)" xlink:href="#W"/><use transform="matrix(0.05,0,0,0.05,12,0)" xlink:href="#ae"/><use transform="matrix(0.05,0,0,0.05,22,0)" xlink:href="#af"/><use transform="matrix(0.05,0,0,0.05,32,0)" xlink:href="#L"/><use transform="matrix(0.05,0,0,0.05,41,0)" xlink:href="#ag"/><use transform="matrix(0.05,0,0,0.05,50,0)" xlink:href="#ah"/><use transform="matrix(0.05,0,0,0.05,55.95,0)" xlink:href="#ai"/><use transform="matrix(0.05,0,0,0.05,59.900000000000006,0)" xlink:href="#aj"/><use transform="matrix(0.05,0,0,0.05,69.9,0)" xlink:href="#K"/><use transform="matrix(0.05,0,0,0.05,74.9,0)" xlink:href="#ai"/><use transform="matrix(0.05,0,0,0.05,78.85000000000001,0)" xlink:href="#ak"/><use transform="matrix(0.05,0,0,0.05,88.85000000000001,0)" xlink:href="#J"/></g><g id="z"><use transform="matrix(0.05,0,0,0.05,0,0)" xlink:href="#W"/><use transform="matrix(0.05,0,0,0.05,12,0)" xlink:href="#ae"/><use transform="matrix(0.05,0,0,0.05,22,0)" xlink:href="#af"/><use transform="matrix(0.05,0,0,0.05,32,0)" xlink:href="#L"/><use transform="matrix(0.05,0,0,0.05,41,0)" xlink:href="#ag"/><use transform="matrix(0.05,0,0,0.05,50,0)" xlink:href="#ah"/><use transform="matrix(0.05,0,0,0.05,55.95,0)" xlink:href="#ai"/><use transform="matrix(0.05,0,0,0.05,59.900000000000006,0)" xlink:href="#aj"/><use transform="matrix(0.05,0,0,0.05,69.9,0)" xlink:href="#K"/><use transform="matrix(0.05,0,0,0.05,74.9,0)" xlink:href="#ai"/><use transform="matrix(0.05,0,0,0.05,78.85000000000001,0)" xlink:href="#ak"/><use transform="matrix(0.05,0,0,0.05,88.85000000000001,0)" xlink:href="#J"/></g><g id="A"><use transform="matrix(0.05,0,0,0.05,0,0)" xlink:href="#W"/><use transform="matrix(0.05,0,0,0.05,12,0)" xlink:href="#I"/><use transform="matrix(0.05,0,0,0.05,22,0)" xlink:href="#ah"/><use transform="matrix(0.05,0,0,0.05,27.950000000000003,0)" xlink:href="#H"/><use transform="matrix(0.05,0,0,0.05,36.95,0)" xlink:href="#ai"/><use transform="matrix(0.05,0,0,0.05,40.900000000000006,0)" xlink:href="#ag"/><use transform="matrix(0.05,0,0,0.05,49.900000000000006,0)" xlink:href="#I"/></g><path d="M101-234c-31-9-42 10-38 44h38v23H63V0H32v-167H5v-23h27c-7-52 17-82 69-68v24" id="ax"/><g id="B"><use transform="matrix(0.05,0,0,0.05,0,0)" xlink:href="#W"/><use transform="matrix(0.05,0,0,0.05,12,0)" xlink:href="#aj"/><use transform="matrix(0.05,0,0,0.05,22,0)" xlink:href="#I"/><use transform="matrix(0.05,0,0,0.05,32,0)" xlink:href="#ag"/><use transform="matrix(0.05,0,0,0.05,41,0)" xlink:href="#ai"/><use transform="matrix(0.05,0,0,0.05,44.95,0)" xlink:href="#ax"/><use transform="matrix(0.05,0,0,0.05,49.95,0)" xlink:href="#ai"/><use transform="matrix(0.05,0,0,0.05,53.900000000000006,0)" xlink:href="#ag"/><use transform="matrix(0.05,0,0,0.05,62.900000000000006,0)" xlink:href="#ao"/><use transform="matrix(0.05,0,0,0.05,72.9,0)" xlink:href="#K"/><use transform="matrix(0.05,0,0,0.05,77.9,0)" xlink:href="#ai"/><use transform="matrix(0.05,0,0,0.05,81.85000000000001,0)" xlink:href="#ak"/><use transform="matrix(0.05,0,0,0.05,91.85000000000001,0)" xlink:href="#J"/></g><g id="C"><use transform="matrix(0.05,0,0,0.05,0,0)" xlink:href="#ar"/><use transform="matrix(0.05,0,0,0.05,10.5,0)" xlink:href="#ar"/><use transform="matrix(0.05,0,0,0.05,21,0)" xlink:href="#ah"/><use transform="matrix(0.05,0,0,0.05,26.950000000000003,0)" xlink:href="#I"/><use transform="matrix(0.05,0,0,0.05,36.95,0)" xlink:href="#ao"/><use transform="matrix(0.05,0,0,0.05,46.95,0)" xlink:href="#am"/></g><use transform="matrix(0.05,0,0,0.05,0,0)" xlink:href="#aa" id="D"/><g id="E"><use transform="matrix(0.05,0,0,0.05,0,0)" xlink:href="#av"/><use transform="matrix(0.05,0,0,0.05,12.950000000000001,0)" xlink:href="#ah"/><use transform="matrix(0.05,0,0,0.05,18.900000000000002,0)" xlink:href="#ai"/><use transform="matrix(0.05,0,0,0.05,22.85,0)" xlink:href="#K"/><use transform="matrix(0.05,0,0,0.05,27.85,0)" xlink:href="#I"/><use transform="matrix(0.05,0,0,0.05,37.85,0)" xlink:href="#as"/><use transform="matrix(0.05,0,0,0.05,48.35,0)" xlink:href="#as"/></g><g id="F"><use transform="matrix(0.05,0,0,0.05,0,0)" xlink:href="#ar"/><use transform="matrix(0.05,0,0,0.05,10.5,0)" xlink:href="#ar"/><use transform="matrix(0.05,0,0,0.05,21,0)" xlink:href="#ae"/><use transform="matrix(0.05,0,0,0.05,31,0)" xlink:href="#L"/><use transform="matrix(0.05,0,0,0.05,40,0)" xlink:href="#I"/><use transform="matrix(0.05,0,0,0.05,50,0)" xlink:href="#as"/><use transform="matrix(0.05,0,0,0.05,60.5,0)" xlink:href="#as"/></g></defs></g></svg>